<?xml version="1.0" standalone="no"?>
<!DOCTYPE svg PUBLIC "-//W3C//DTD SVG 20010904//EN"
 "http://www.w3.org/TR/2001/REC-SVG-20010904/DTD/svg10.dtd">
<svg version="1.0" xmlns="http://www.w3.org/2000/svg"
 width="260.000000pt" height="260.000000pt" viewBox="0 0 260.000000 260.000000"
 preserveAspectRatio="xMidYMid meet">
<metadata>
Created by potrace 1.14, written by Peter Selinger 2001-2017
</metadata>
<g transform="translate(0.000000,260.000000) scale(0.100000,-0.100000)"
fill="#000000" stroke="none">
<path d="M2523 2585 c0 -8 4 -12 9 -9 5 3 6 10 3 15 -9 13 -12 11 -12 -6z"/>
<path d="M1916 2567 c-18 -13 -18 -14 0 -21 10 -4 15 -4 11 0 -4 4 -2 13 4 21
15 17 8 17 -15 0z"/>
<path d="M1271 2554 c0 -11 3 -14 6 -6 3 7 2 16 -1 19 -3 4 -6 -2 -5 -13z"/>
<path d="M2585 2560 c3 -5 8 -10 11 -10 2 0 4 5 4 10 0 6 -5 10 -11 10 -5 0
-7 -4 -4 -10z"/>
<path d="M1110 2550 c-9 -6 -10 -10 -3 -10 6 0 15 5 18 10 8 12 4 12 -15 0z"/>
<path d="M1160 2550 c-9 -6 -10 -10 -3 -10 6 0 15 5 18 10 8 12 4 12 -15 0z"/>
<path d="M1245 2540 c-3 -5 -1 -10 4 -10 6 0 11 5 11 10 0 6 -2 10 -4 10 -3 0
-8 -4 -11 -10z"/>
<path d="M586 2523 c-6 -14 -5 -15 5 -6 7 7 10 15 7 18 -3 3 -9 -2 -12 -12z"/>
<path d="M1586 2525 c4 -8 7 -15 9 -15 2 0 5 7 9 15 3 9 0 15 -9 15 -9 0 -12
-6 -9 -15z"/>
<path d="M1120 2520 c-9 -6 -10 -10 -3 -10 6 0 15 5 18 10 8 12 4 12 -15 0z"/>
<path d="M1215 2513 c-5 -10 -9 -20 -9 -23 -1 -3 -5 -12 -11 -20 -8 -13 -7
-13 8 -1 10 8 20 11 23 8 3 -3 -3 -12 -15 -19 -12 -7 -21 -19 -21 -26 0 -7 -5
-10 -10 -7 -6 4 -8 11 -5 16 3 5 -1 6 -8 3 -8 -3 -17 -15 -21 -27 -5 -21 -4
-21 9 -4 13 18 14 17 29 -10 12 -21 15 -23 13 -8 -2 21 3 25 29 25 8 0 12 -4
9 -10 -3 -5 -1 -10 4 -10 19 0 12 22 -9 27 -11 3 -20 10 -20 15 0 6 7 8 15 5
8 -4 17 -2 20 3 4 6 1 10 -5 10 -6 0 -9 4 -5 9 3 6 -2 14 -11 19 -10 5 -12 12
-6 16 5 3 15 -1 22 -9 7 -8 18 -15 24 -15 6 0 4 5 -4 10 -11 7 -11 10 -2 10 7
0 10 5 7 10 -4 6 -11 7 -17 4 -6 -4 -14 -1 -18 6 -5 8 -9 6 -15 -7z"/>
<path d="M2575 2520 c-3 -5 -1 -10 4 -10 6 0 11 5 11 10 0 6 -2 10 -4 10 -3 0
-8 -4 -11 -10z"/>
<path d="M140 2509 c0 -5 5 -7 10 -4 6 3 10 8 10 11 0 2 -4 4 -10 4 -5 0 -10
-5 -10 -11z"/>
<path d="M2500 2516 c0 -3 9 -10 20 -16 11 -6 20 -8 20 -6 0 3 -9 10 -20 16
-11 6 -20 8 -20 6z"/>
<path d="M1840 2501 c0 -6 4 -13 10 -16 6 -3 7 1 4 9 -7 18 -14 21 -14 7z"/>
<path d="M200 2489 c0 -15 18 -19 23 -6 3 8 -1 14 -9 14 -8 0 -14 -4 -14 -8z"/>
<path d="M2110 2489 c0 -5 5 -7 10 -4 6 3 10 8 10 11 0 2 -4 4 -10 4 -5 0 -10
-5 -10 -11z"/>
<path d="M2150 2486 c0 -23 11 -46 23 -46 7 0 7 4 -1 12 -15 15 -16 42 0 32 7
-4 8 -3 4 4 -10 17 -26 15 -26 -2z"/>
<path d="M333 2475 c0 -8 4 -12 9 -9 5 3 6 10 3 15 -9 13 -12 11 -12 -6z"/>
<path d="M1126 2476 c7 -19 20 -21 30 -3 4 6 4 9 -1 5 -4 -4 -14 -3 -22 4 -11
8 -12 7 -7 -6z"/>
<path d="M73 2469 c13 -8 15 -14 7 -29 -8 -15 -7 -17 11 -13 14 4 17 8 9 13
-6 4 -11 10 -11 14 3 20 -1 26 -16 26 -17 -1 -17 -1 0 -11z"/>
<path d="M620 2472 c0 -5 6 -15 14 -21 12 -10 14 -9 12 5 -3 19 -26 33 -26 16z"/>
<path d="M155 2459 c-3 -4 2 -6 10 -5 21 3 28 13 10 13 -9 0 -18 -4 -20 -8z"/>
<path d="M1060 2460 c0 -10 19 -14 50 -11 11 1 10 -2 -3 -10 -10 -6 -25 -8
-33 -5 -21 8 -17 -2 6 -14 26 -14 64 19 44 38 -8 8 -15 8 -19 2 -4 -7 -13 -6
-26 0 -13 7 -19 7 -19 0z"/>
<path d="M1261 2454 c0 -11 3 -14 6 -6 3 7 2 16 -1 19 -3 4 -6 -2 -5 -13z"/>
<path d="M2030 2466 c0 -2 7 -7 16 -10 8 -3 12 -2 9 4 -6 10 -25 14 -25 6z"/>
<path d="M2114 2459 c1 -7 10 -13 19 -15 9 -1 15 2 11 7 -3 5 -9 7 -14 4 -4
-3 -11 0 -13 5 -3 6 -4 5 -3 -1z"/>
<path d="M3 2445 c0 -8 4 -12 9 -9 5 3 6 10 3 15 -9 13 -12 11 -12 -6z"/>
<path d="M1030 2450 c-9 -6 -10 -10 -3 -10 6 0 15 5 18 10 8 12 4 12 -15 0z"/>
<path d="M345 2440 c-4 -6 -11 -7 -17 -4 -7 4 -8 2 -4 -5 6 -9 11 -9 22 0 14
11 18 19 10 19 -3 0 -8 -5 -11 -10z"/>
<path d="M1335 2439 c-4 -6 -5 -12 -2 -15 2 -3 7 2 10 11 7 17 1 20 -8 4z"/>
<path d="M1675 2440 c-3 -5 -1 -10 4 -10 6 0 11 5 11 10 0 6 -2 10 -4 10 -3 0
-8 -4 -11 -10z"/>
<path d="M2187 2437 c-3 -8 3 -14 16 -15 12 0 17 2 12 6 -6 4 -13 11 -16 15
-4 4 -9 2 -12 -6z"/>
<path d="M260 2426 c0 -7 40 -14 44 -7 3 4 -6 8 -20 9 -13 1 -24 0 -24 -2z"/>
<path d="M1121 2404 c0 -11 3 -14 6 -6 3 7 2 16 -1 19 -3 4 -6 -2 -5 -13z"/>
<path d="M1939 2403 c-13 -16 -12 -17 4 -4 16 13 21 21 13 21 -2 0 -10 -8 -17
-17z"/>
<path d="M1990 2410 c-9 -6 -10 -10 -3 -10 6 0 15 5 18 10 8 12 4 12 -15 0z"/>
<path d="M47 2403 c-4 -3 -7 -11 -7 -17 0 -6 5 -5 12 2 6 6 9 14 7 17 -3 3 -9
2 -12 -2z"/>
<path d="M67 2389 c-4 -16 -3 -18 9 -8 7 6 11 15 8 20 -8 13 -11 11 -17 -12z"/>
<path d="M170 2399 c0 -5 5 -7 10 -4 6 3 10 8 10 11 0 2 -4 4 -10 4 -5 0 -10
-5 -10 -11z"/>
<path d="M593 2386 c0 -14 4 -26 10 -26 6 0 7 3 3 7 -3 4 4 13 16 21 17 10 18
12 4 7 -11 -3 -23 -1 -26 6 -4 6 -7 -1 -7 -15z"/>
<path d="M1623 2397 c0 -8 6 -14 13 -14 7 0 10 6 7 14 -3 7 -8 13 -12 13 -4 0
-8 -6 -8 -13z"/>
<path d="M1725 2399 c-4 -6 -5 -12 -2 -15 2 -3 7 2 10 11 7 17 1 20 -8 4z"/>
<path d="M2125 2400 c3 -5 8 -10 11 -10 2 0 4 5 4 10 0 6 -5 10 -11 10 -5 0
-7 -4 -4 -10z"/>
<path d="M2180 2405 c0 -5 5 -17 10 -25 5 -8 10 -10 10 -5 0 6 -5 17 -10 25
-5 8 -10 11 -10 5z"/>
<path d="M1006 2391 c-4 -5 -3 -16 0 -25 4 -10 0 -18 -10 -22 -21 -8 -20 -23
1 -20 13 2 18 13 18 39 1 39 0 43 -9 28z"/>
<path d="M2054 2389 c-4 -7 -3 -9 4 -5 5 3 13 0 15 -6 4 -9 6 -10 6 -1 1 17
-16 25 -25 12z"/>
<path d="M300 2370 c-9 -6 -10 -10 -3 -10 6 0 15 5 18 10 8 12 4 12 -15 0z"/>
<path d="M650 2371 c0 -5 7 -12 16 -15 14 -5 15 -4 4 9 -14 17 -20 19 -20 6z"/>
<path d="M1220 2361 c-12 -24 -13 -34 -1 -27 9 6 22 46 15 46 -2 0 -8 -9 -14
-19z"/>
<path d="M2031 2347 c16 -31 18 -32 16 -8 -1 11 -7 23 -14 26 -11 4 -11 0 -2
-18z"/>
<path d="M2162 2354 c9 -9 21 -15 27 -13 6 2 -2 10 -17 17 -25 11 -25 11 -10
-4z"/>
<path d="M101 2344 c0 -11 3 -14 6 -6 3 7 2 16 -1 19 -3 4 -6 -2 -5 -13z"/>
<path d="M145 2350 c-8 -13 5 -13 25 0 13 8 13 10 -2 10 -9 0 -20 -4 -23 -10z"/>
<path d="M205 2349 c-4 -6 -5 -12 -2 -15 2 -3 7 2 10 11 7 17 1 20 -8 4z"/>
<path d="M1090 2349 c0 -5 -6 -7 -12 -3 -10 5 -10 4 -1 -6 9 -10 15 -10 28 4
15 14 15 16 1 16 -9 0 -16 -5 -16 -11z"/>
<path d="M1651 2344 c0 -11 3 -14 6 -6 3 7 2 16 -1 19 -3 4 -6 -2 -5 -13z"/>
<path d="M565 2339 c-4 -6 -5 -12 -2 -15 2 -3 7 2 10 11 7 17 1 20 -8 4z"/>
<path d="M640 2335 c-7 -9 -8 -15 -2 -15 5 0 12 7 16 15 3 8 4 15 2 15 -2 0
-9 -7 -16 -15z"/>
<path d="M2070 2340 c-9 -6 -10 -10 -3 -10 6 0 15 5 18 10 8 12 4 12 -15 0z"/>
<path d="M1166 2325 c-11 -8 -14 -15 -8 -15 20 0 26 4 28 18 3 15 3 15 -20 -3z"/>
<path d="M1590 2336 c0 -2 7 -7 16 -10 8 -3 12 -2 9 4 -6 10 -25 14 -25 6z"/>
<path d="M1886 2323 c-6 -14 -5 -15 5 -6 7 7 10 15 7 18 -3 3 -9 -2 -12 -12z"/>
<path d="M2135 2331 c-6 -11 13 -26 22 -17 4 3 1 6 -6 6 -7 0 -9 5 -6 10 3 6
4 10 1 10 -3 0 -7 -4 -11 -9z"/>
<path d="M125 2319 c-11 -16 -1 -19 13 -3 7 8 8 14 3 14 -5 0 -13 -5 -16 -11z"/>
<path d="M1800 2311 c0 -7 -5 -9 -12 -5 -7 5 -8 3 -3 -5 5 -9 10 -10 18 -2 6
6 8 14 4 18 -4 3 -7 1 -7 -6z"/>
<path d="M2080 2309 c0 -5 5 -7 10 -4 6 3 10 8 10 11 0 2 -4 4 -10 4 -5 0 -10
-5 -10 -11z"/>
<path d="M657 2299 c7 -7 15 -10 18 -7 3 3 -2 9 -12 12 -14 6 -15 5 -6 -5z"/>
<path d="M1545 2300 c-4 -6 -10 -8 -14 -6 -4 3 -8 -1 -8 -9 0 -13 4 -12 19 2
18 16 22 23 14 23 -3 0 -8 -5 -11 -10z"/>
<path d="M1586 2302 c-3 -5 1 -9 9 -9 8 0 12 4 9 9 -3 4 -7 8 -9 8 -2 0 -6 -4
-9 -8z"/>
<path d="M1866 2291 c-4 -5 -2 -12 3 -15 5 -4 12 -2 15 3 4 5 2 12 -3 15 -5 4
-12 2 -15 -3z"/>
<path d="M360 2288 c0 -2 9 -11 20 -21 11 -9 20 -13 20 -7 0 5 -9 14 -20 20
-11 6 -20 9 -20 8z"/>
<path d="M465 2271 c-3 -5 -2 -12 3 -15 5 -3 9 1 9 9 0 17 -3 19 -12 6z"/>
<path d="M1335 2260 c10 -11 20 -20 23 -20 3 0 -3 9 -13 20 -10 11 -20 20 -23
20 -3 0 3 -9 13 -20z"/>
<path d="M1092 2229 l-24 -41 -58 4 c-32 1 -58 1 -58 -2 1 -19 -3 -30 -11 -26
-5 3 -12 -1 -15 -10 -3 -9 -2 -12 5 -8 6 3 3 -8 -6 -25 -9 -19 -20 -29 -27
-25 -8 5 -9 2 -5 -9 3 -10 3 -17 -1 -17 -4 0 -9 -11 -10 -25 -2 -30 -33 -111
-67 -175 -20 -38 -28 -44 -49 -42 -19 3 -30 -4 -44 -27 -10 -17 -22 -28 -27
-23 -5 4 -5 2 -2 -4 4 -6 -3 -31 -15 -55 -23 -47 -25 -51 -27 -74 0 -9 -11
-20 -23 -25 -13 -5 -18 -9 -11 -9 6 -1 10 -9 8 -18 -1 -10 -8 -17 -14 -16 -6
2 -10 0 -9 -5 1 -4 -2 -17 -6 -30 -7 -22 -8 -22 -24 -4 -9 10 -13 12 -8 5 5
-7 5 -13 1 -13 -4 0 -2 -7 5 -15 8 -10 9 -15 2 -15 -6 0 -9 -6 -6 -14 3 -8 1
-17 -5 -21 -6 -3 -11 -15 -11 -26 0 -11 -7 -19 -17 -19 -15 0 -16 2 -3 10 12
8 12 10 1 10 -10 0 -12 9 -6 38 4 20 3 33 -2 29 -8 -9 -10 -14 -12 -48 0 -11
-5 -18 -9 -15 -5 3 -9 -1 -9 -9 0 -7 11 -16 24 -20 16 -4 23 -13 23 -30 0 -14
-5 -25 -11 -25 -5 0 -7 -4 -4 -10 3 -5 1 -10 -4 -10 -6 0 -11 6 -11 14 0 22
-16 27 -17 6 -1 -11 7 -22 17 -25 17 -6 18 -8 3 -50 -17 -50 -19 -52 -43 -30
-14 13 -17 13 -17 0 0 -8 4 -12 8 -10 3 3 13 -2 20 -11 10 -13 10 -17 -1 -24
-9 -6 -18 -4 -23 3 -6 8 -7 7 -4 -3 2 -8 10 -14 16 -13 7 2 11 -15 11 -47 0
-29 -5 -50 -11 -50 -5 0 -7 -5 -4 -10 4 -6 14 -9 23 -8 12 2 16 -3 15 -20 -2
-13 1 -21 7 -17 6 3 15 3 21 0 13 -8 -18 -45 -38 -45 -7 0 -13 -5 -13 -11 0
-7 9 -5 24 4 22 15 26 15 37 1 7 -8 8 -14 3 -13 -5 1 -16 1 -24 0 -13 -1 -13
-2 0 -11 12 -8 12 -10 -3 -16 -27 -10 -20 -19 15 -18 18 1 37 -4 41 -10 5 -6
7 -2 4 12 -4 17 -2 21 6 14 15 -12 71 10 60 24 -5 5 4 -2 19 -15 l28 -24 0 24
c0 19 -2 21 -10 9 -8 -13 -10 -12 -10 3 0 22 26 22 34 0 6 -15 8 -15 16 -3 7
12 10 9 10 -12 0 -18 7 -29 20 -33 20 -6 28 -25 11 -25 -15 0 -42 -48 -31 -55
6 -4 10 -3 9 2 -3 13 12 43 21 43 12 0 8 -43 -5 -53 -6 -5 -4 -7 5 -4 8 2 14
12 13 21 -1 13 4 16 18 13 10 -3 19 -2 19 3 0 4 -9 10 -20 13 -23 6 -18 37 6
37 7 0 16 11 20 25 5 22 21 31 47 26 5 -1 6 3 2 8 -3 6 -13 8 -23 5 -14 -5
-14 -4 -3 4 8 6 21 8 29 4 11 -4 13 -1 7 7 -6 10 -3 11 12 3 21 -12 53 0 34
12 -6 4 -11 2 -11 -4 0 -6 -4 -9 -9 -5 -6 3 -9 14 -8 25 1 10 3 17 5 15 3 -3
14 13 24 35 11 22 24 40 30 40 5 0 7 4 4 8 -2 4 -1 14 5 22 7 12 9 12 9 -4 0
-14 3 -16 13 -7 8 6 18 7 22 3 5 -4 5 -1 1 6 -4 7 -11 10 -15 8 -4 -3 -8 4 -8
15 -1 10 3 19 8 19 6 0 7 5 4 10 -3 6 4 10 17 11 22 0 22 1 3 9 -17 7 -18 9
-4 14 11 5 14 15 11 31 -4 21 24 115 35 115 2 0 14 -7 27 -15 22 -15 26 -14
55 11 25 21 30 22 25 7 -5 -14 -4 -15 4 -3 6 8 8 18 6 22 -13 20 9 26 41 11
19 -9 32 -20 29 -24 -2 -4 1 -11 7 -15 8 -4 9 -3 5 4 -8 13 6 17 18 5 3 -4 14
-8 24 -10 59 -10 74 -9 97 9 14 11 25 17 25 13 0 -3 10 -1 21 6 17 9 23 8 30
-2 7 -11 9 -11 9 3 0 20 69 62 130 78 25 7 51 17 58 22 8 7 12 7 12 -1 0 -6 4
-11 10 -11 5 0 7 6 4 14 -4 12 23 32 32 23 2 -2 -4 -26 -13 -54 -15 -48 -18
-51 -45 -48 -25 3 -27 1 -17 -11 13 -16 23 -19 14 -4 -3 6 -2 10 4 10 15 0 22
-16 15 -34 -5 -13 -8 -14 -20 -1 -8 8 -21 12 -29 9 -12 -5 -12 -8 0 -20 7 -8
19 -14 25 -14 7 0 9 -7 6 -16 -3 -9 -9 -27 -12 -40 -7 -29 -24 -32 -19 -4 2
11 0 18 -6 15 -5 -4 -9 -1 -9 4 0 6 -5 11 -11 11 -5 0 -7 -5 -3 -12 5 -8 1 -9
-12 -4 -12 4 -8 -2 10 -17 24 -20 27 -28 21 -55 -4 -19 -11 -29 -17 -26 -7 4
-8 2 -4 -4 10 -16 -12 -54 -26 -46 -7 5 -9 2 -5 -8 7 -20 -16 -87 -34 -99 -9
-6 -10 -9 -2 -9 8 0 11 -13 9 -34 -3 -38 -4 -37 112 -52 44 -6 55 -11 63 -30
10 -28 53 -33 67 -8 7 12 19 15 40 12 24 -3 33 0 43 18 7 13 16 21 21 18 4 -3
8 3 8 14 0 10 10 28 23 40 25 24 43 29 31 10 -4 -6 -3 -8 3 -5 6 4 8 18 6 32
-3 14 4 41 15 64 11 21 18 42 14 47 -4 4 -2 4 5 0 6 -3 15 -1 18 4 5 8 14 5
28 -7 21 -18 21 -18 7 1 -14 18 -13 19 5 13 14 -5 11 0 -10 18 -16 14 -23 22
-14 19 10 -3 20 -1 24 5 3 7 -3 11 -17 12 -13 0 -17 3 -10 6 6 2 9 10 5 16 -4
7 2 5 12 -3 17 -13 18 -13 13 1 -4 11 1 20 18 27 22 11 25 42 3 42 -5 0 -9 4
-9 10 0 5 6 9 13 7 6 -1 12 7 12 18 0 22 20 39 35 30 5 -3 8 7 7 23 -1 21 -6
28 -16 24 -10 -4 -12 -1 -5 9 8 13 10 18 13 37 1 11 31 11 31 1 0 -4 -6 -10
-12 -13 -7 -3 0 -3 15 -1 21 3 27 0 23 -10 -2 -7 3 -19 12 -27 11 -9 14 -10 8
0 -4 7 -2 12 4 12 6 0 8 5 3 13 -4 6 -8 18 -8 26 0 8 -6 16 -13 19 -7 2 -12 0
-11 -5 4 -23 -3 -25 -17 -5 -8 12 -19 20 -24 17 -4 -3 -6 4 -3 15 3 11 9 18
13 15 5 -3 6 5 2 17 -4 17 -2 20 11 15 22 -8 30 8 16 34 -8 16 -8 23 0 29 7 3
9 13 7 21 -8 21 9 84 21 82 6 -1 14 4 17 12 3 10 0 12 -11 8 -13 -5 -15 -2
-10 18 4 13 7 32 7 42 0 9 8 17 18 17 10 0 13 3 7 8 -14 9 -13 33 0 30 5 -2 9
-6 8 -10 -2 -4 7 -5 18 -3 16 3 19 0 14 -14 -3 -12 0 -21 10 -24 8 -4 14 -1
12 6 -1 7 4 11 11 10 7 -2 12 7 12 22 0 13 8 29 18 34 9 6 12 11 6 11 -6 0
-14 -3 -17 -7 -11 -10 -75 -14 -81 -5 -9 15 35 72 56 72 17 0 18 3 8 15 -9 10
-9 15 -1 15 6 0 10 6 8 13 -1 6 3 11 8 10 6 -1 11 25 13 57 2 51 0 60 -18 70
-11 6 -18 15 -15 20 3 5 1 11 -4 15 -6 3 -8 -3 -6 -15 4 -20 -10 -26 -31 -12
-7 4 -14 18 -15 32 -3 21 -10 26 -41 28 -34 3 -39 0 -64 -39 l-27 -43 -18 23
c-11 13 -16 28 -12 34 3 5 1 7 -5 3 -6 -3 -13 -2 -16 2 -12 19 -117 -9 -163
-44 -17 -13 -35 -24 -38 -24 -4 0 -20 -14 -37 -32 l-30 -32 -20 24 c-11 14
-17 19 -13 13 6 -12 -6 -17 -32 -14 -6 1 -11 -8 -10 -19 2 -23 15 -27 23 -5 4
8 12 15 20 15 26 0 14 -15 -31 -39 -25 -13 -66 -42 -90 -63 -25 -22 -45 -34
-45 -26 -1 7 -8 0 -16 -15 -10 -18 -21 -26 -30 -23 -7 3 -13 2 -13 -2 3 -19
-3 -22 -23 -11 -20 11 -21 10 -10 -3 10 -12 9 -18 -2 -28 -9 -6 -21 -8 -27 -4
-7 4 -9 3 -6 -3 4 -6 -25 -19 -67 -32 -86 -24 -111 -27 -100 -8 6 9 5 9 -8 0
-16 -14 -28 -8 -28 14 0 10 7 12 23 8 17 -5 19 -4 7 4 -11 8 -12 11 -2 11 7 0
11 4 7 10 -3 5 -12 7 -20 3 -10 -3 -15 1 -15 12 0 9 4 14 9 10 5 -3 12 4 16
14 4 12 12 18 21 14 7 -3 14 0 14 6 0 6 -7 11 -16 11 -14 0 -14 3 -3 16 7 9 9
18 3 22 -5 4 -10 13 -12 21 -3 12 0 12 12 2 13 -11 14 -9 11 16 -2 15 -2 22 1
16 3 -7 14 -13 25 -13 10 0 19 6 19 13 0 9 2 9 9 -1 7 -11 9 -11 14 1 3 8 3
17 1 20 -9 8 -44 -5 -38 -14 3 -5 0 -9 -7 -9 -6 0 -9 8 -7 18 3 11 0 19 -8 19
-7 0 -11 -4 -9 -7 3 -4 -6 -7 -19 -7 -17 0 -23 4 -21 16 2 9 4 19 4 24 1 4 6
7 12 7 8 0 8 -4 0 -14 -9 -11 -6 -12 14 -8 14 2 25 8 25 11 0 4 7 8 15 8 10 0
13 -6 9 -19 -4 -13 -1 -16 10 -12 9 3 13 10 10 15 -3 5 2 9 11 9 13 0 14 2 3
14 -7 8 -16 12 -20 9 -5 -2 -8 1 -8 6 0 6 8 11 18 12 13 0 14 2 2 6 -8 3 -17
9 -20 12 -3 3 -16 15 -30 26 -21 17 -23 17 -10 2 12 -17 12 -18 -5 -15 -11 1
-27 11 -37 21 -10 10 -23 15 -28 12 -15 -9 -12 -25 5 -25 8 0 15 -4 15 -9 0
-6 9 -8 19 -6 27 5 36 -32 9 -41 -11 -3 -22 -3 -25 0 -4 3 2 6 12 6 10 0 15 3
11 8 -11 10 -30 9 -38 -3 -4 -5 -8 0 -8 13 0 13 -4 20 -10 17 -5 -3 -10 1 -10
10 0 8 -11 21 -25 27 -16 7 -27 22 -31 45 -5 29 -10 33 -38 33 -26 0 -35 -7
-54 -41z m265 -85 c-3 -3 -12 -4 -19 -1 -8 3 -5 6 6 6 11 1 17 -2 13 -5z m3
-23 c0 -5 -7 -12 -16 -15 -24 -9 -28 -7 -14 9 14 17 30 20 30 6z m936 -269
c-18 -16 -18 -16 -6 6 6 13 14 21 18 18 3 -4 -2 -14 -12 -24z m-116 -262 c0
-5 -2 -10 -4 -10 -3 0 -8 5 -11 10 -3 6 -1 10 4 10 6 0 11 -4 11 -10z m-107
-291 c-8 -8 -13 -7 -18 2 -5 8 -4 10 3 5 7 -4 12 -2 12 5 0 7 3 9 7 6 4 -4 2
-12 -4 -18z m-1482 -302 c-13 -13 -26 -3 -16 12 3 6 11 8 17 5 6 -4 6 -10 -1
-17z m49 7 c0 -2 -7 -4 -15 -4 -8 0 -15 4 -15 10 0 5 7 7 15 4 8 -4 15 -8 15
-10z m-22 -23 c11 -7 11 -9 -1 -14 -16 -6 -27 0 -27 15 0 10 11 10 28 -1z"/>
<path d="M1912 2261 c2 -7 7 -12 11 -12 12 1 9 15 -3 20 -7 2 -11 -2 -8 -8z"/>
<path d="M593 2245 c0 -6 6 -12 12 -12 6 0 12 6 12 12 0 6 -6 12 -12 12 -6 0
-12 -6 -12 -12z"/>
<path d="M1610 2249 c0 -5 5 -7 10 -4 6 3 10 8 10 11 0 2 -4 4 -10 4 -5 0 -10
-5 -10 -11z"/>
<path d="M413 2243 c4 -6 3 -13 -2 -15 -5 -1 -3 -9 5 -16 12 -11 13 -9 11 7
-2 11 -7 24 -12 28 -4 5 -5 3 -2 -4z"/>
<path d="M286 2225 c4 -8 11 -15 16 -15 6 0 5 6 -2 15 -7 8 -14 15 -16 15 -2
0 -1 -7 2 -15z"/>
<path d="M451 2224 c0 -11 3 -14 6 -6 3 7 2 16 -1 19 -3 4 -6 -2 -5 -13z"/>
<path d="M1630 2221 c0 -11 4 -22 9 -25 4 -3 6 6 3 19 -5 30 -12 33 -12 6z"/>
<path d="M70 2219 c0 -5 5 -7 10 -4 6 3 10 8 10 11 0 2 -4 4 -10 4 -5 0 -10
-5 -10 -11z"/>
<path d="M516 2217 c3 -10 9 -15 12 -12 3 3 0 11 -7 18 -10 9 -11 8 -5 -6z"/>
<path d="M585 2200 c10 -11 20 -20 23 -20 3 0 -3 9 -13 20 -10 11 -20 20 -23
20 -3 0 3 -9 13 -20z"/>
<path d="M720 2203 c0 -10 4 -14 8 -8 4 6 11 13 16 18 5 4 2 7 -7 7 -10 0 -17
-8 -17 -17z"/>
<path d="M830 2216 c0 -2 8 -10 18 -17 15 -13 16 -12 3 4 -13 16 -21 21 -21
13z"/>
<path d="M371 2197 c-6 -6 -11 -16 -11 -21 0 -6 5 -3 11 6 5 10 16 15 24 12 8
-4 15 -4 15 -1 0 11 -28 15 -39 4z"/>
<path d="M1698 2203 c7 -3 16 -2 19 1 4 3 -2 6 -13 5 -11 0 -14 -3 -6 -6z"/>
<path d="M500 2191 c0 -5 5 -13 10 -16 6 -3 10 -2 10 4 0 5 -4 13 -10 16 -5 3
-10 2 -10 -4z"/>
<path d="M240 2182 c0 -8 -5 -10 -12 -6 -9 6 -9 3 1 -9 10 -13 17 -14 35 -5
29 15 35 23 12 14 -12 -4 -23 -2 -28 6 -6 11 -8 10 -8 0z"/>
<path d="M430 2186 c0 -2 7 -7 16 -10 8 -3 12 -2 9 4 -6 10 -25 14 -25 6z"/>
<path d="M1555 2170 c-5 -8 62 -7 71 2 4 4 -10 7 -30 6 -20 -1 -39 -4 -41 -8z"/>
<path d="M329 2148 c0 -22 -1 -22 -9 -3 -5 11 -9 14 -9 8 -1 -7 -6 -13 -12
-13 -5 0 -8 4 -5 9 4 5 -3 7 -14 4 -11 -3 -20 -9 -20 -13 0 -5 -3 -15 -6 -24
-5 -12 0 -16 17 -15 13 0 18 3 12 6 -16 6 -17 33 -2 33 5 0 7 -5 3 -12 -5 -7
-2 -9 9 -5 9 3 21 -1 29 -10 11 -14 11 -16 -3 -11 -13 5 -16 2 -12 -13 3 -11
9 -22 14 -25 5 -3 6 3 2 12 -5 14 -3 16 11 11 12 -5 15 -3 10 5 -4 7 -7 27 -6
45 2 18 0 33 -3 33 -3 0 -5 -10 -6 -22z"/>
<path d="M390 2159 c0 -5 5 -7 10 -4 6 3 10 8 10 11 0 2 -4 4 -10 4 -5 0 -10
-5 -10 -11z"/>
<path d="M367 2153 c-4 -6 -3 -14 3 -18 6 -4 8 -10 5 -15 -3 -5 0 -12 6 -16 7
-4 9 -3 6 3 -10 16 18 24 32 10 9 -9 11 -8 5 6 -4 11 -13 16 -24 12 -13 -4
-20 0 -22 12 -2 12 -6 14 -11 6z"/>
<path d="M468 2153 c7 -3 16 -2 19 1 4 3 -2 6 -13 5 -11 0 -14 -3 -6 -6z"/>
<path d="M670 2150 c8 -5 20 -10 25 -10 6 0 3 5 -5 10 -8 5 -19 10 -25 10 -5
0 -3 -5 5 -10z"/>
<path d="M790 2150 c0 -5 5 -10 11 -10 5 0 7 5 4 10 -3 6 -8 10 -11 10 -2 0
-4 -4 -4 -10z"/>
<path d="M1491 2148 c-1 -21 15 -32 25 -17 4 7 3 9 -4 5 -6 -3 -13 2 -15 11
-4 16 -5 16 -6 1z"/>
<path d="M1673 2148 c4 -10 2 -18 -4 -18 -6 0 -7 -4 -4 -10 3 -5 10 -10 15
-10 10 0 5 39 -6 49 -4 3 -4 -2 -1 -11z"/>
<path d="M506 2142 c-3 -5 1 -9 9 -9 8 0 12 4 9 9 -3 4 -7 8 -9 8 -2 0 -6 -4
-9 -8z"/>
<path d="M1638 2143 c7 -3 16 -2 19 1 4 3 -2 6 -13 5 -11 0 -14 -3 -6 -6z"/>
<path d="M1580 2133 c0 -7 4 -14 10 -18 15 -9 1 -31 -20 -32 -11 -1 -18 2 -15
7 3 4 -1 10 -8 13 -7 3 -13 -3 -13 -13 0 -10 3 -17 7 -14 4 2 15 -3 23 -12 9
-9 16 -11 16 -4 0 6 6 8 13 4 6 -4 9 -4 5 1 -4 4 -3 15 1 24 6 11 4 23 -5 36
-8 10 -14 14 -14 8z"/>
<path d="M613 2117 c0 -7 8 -13 18 -12 20 1 39 15 21 15 -5 0 -17 2 -25 5 -7
3 -14 0 -14 -8z"/>
<path d="M818 2118 c5 -5 16 -8 23 -6 8 3 3 7 -10 11 -17 4 -21 3 -13 -5z"/>
<path d="M2362 2114 c-20 -22 17 -36 48 -18 22 13 22 14 3 9 -13 -4 -25 0 -30
9 -7 12 -10 12 -21 0z"/>
<path d="M80 2110 c0 -5 0 -13 1 -16 0 -4 -5 -11 -13 -16 -10 -8 -10 -9 2 -5
8 2 14 10 12 17 -2 8 3 10 14 6 14 -5 15 -4 4 9 -15 18 -20 19 -20 5z"/>
<path d="M690 2109 c0 -5 9 -9 20 -9 11 0 20 2 20 4 0 2 -9 6 -20 9 -11 3 -20
1 -20 -4z"/>
<path d="M1790 2116 c0 -2 7 -7 16 -10 8 -3 12 -2 9 4 -6 10 -25 14 -25 6z"/>
<path d="M133 2095 c0 -8 4 -15 9 -15 4 0 8 4 8 9 0 6 -4 12 -8 15 -5 3 -9 -1
-9 -9z"/>
<path d="M745 2090 c-3 -6 1 -7 9 -4 18 7 21 14 7 14 -6 0 -13 -4 -16 -10z"/>
<path d="M2557 2087 c-3 -8 1 -14 8 -14 7 0 11 6 8 14 -3 7 -6 13 -8 13 -2 0
-5 -6 -8 -13z"/>
<path d="M356 2073 c-6 -14 -5 -15 5 -6 7 7 10 15 7 18 -3 3 -9 -2 -12 -12z"/>
<path d="M380 2086 c0 -2 7 -7 16 -10 8 -3 12 -2 9 4 -6 10 -25 14 -25 6z"/>
<path d="M475 2080 c-3 -5 -2 -10 4 -10 5 0 13 5 16 10 3 6 2 10 -4 10 -5 0
-13 -4 -16 -10z"/>
<path d="M1480 2080 c0 -5 5 -10 10 -10 6 0 10 5 10 10 0 6 -4 10 -10 10 -5 0
-10 -4 -10 -10z"/>
<path d="M1665 2081 c-3 -5 0 -13 6 -17 7 -4 9 -3 5 4 -3 5 0 13 6 15 9 4 10
6 1 6 -6 1 -14 -3 -18 -8z"/>
<path d="M1701 2074 c0 -11 3 -14 6 -6 3 7 2 16 -1 19 -3 4 -6 -2 -5 -13z"/>
<path d="M2426 2078 c5 -8 2 -9 -9 -5 -21 8 -21 3 -1 -17 22 -23 32 -20 26 9
-2 14 -9 25 -14 25 -5 0 -6 -5 -2 -12z"/>
<path d="M2480 2080 c0 -5 5 -10 11 -10 5 0 7 5 4 10 -3 6 -8 10 -11 10 -2 0
-4 -4 -4 -10z"/>
<path d="M100 2070 c-8 -5 -11 -13 -6 -17 5 -4 11 -2 13 5 3 6 10 9 15 6 7 -4
8 -2 4 4 -9 14 -7 14 -26 2z"/>
<path d="M206 2063 c-6 -14 -5 -15 5 -6 7 7 10 15 7 18 -3 3 -9 -2 -12 -12z"/>
<path d="M423 2065 c-11 -8 -22 -12 -25 -10 -3 3 -5 -2 -5 -10 0 -10 4 -12 12
-5 6 5 22 13 35 18 13 5 19 12 13 15 -5 3 -19 0 -30 -8z"/>
<path d="M790 2076 c0 -2 7 -9 15 -16 13 -11 14 -10 9 4 -5 14 -24 23 -24 12z"/>
<path d="M1630 2076 c0 -2 7 -9 15 -16 13 -11 14 -10 9 4 -5 14 -24 23 -24 12z"/>
<path d="M694 2058 c-4 -5 -3 -12 0 -15 3 -4 6 -1 6 5 0 6 7 9 15 6 8 -4 15
-2 15 3 0 12 -29 13 -36 1z"/>
<path d="M830 2064 c0 -13 18 -39 24 -34 2 3 -2 14 -10 24 -8 11 -14 16 -14
10z"/>
<path d="M2347 2063 c-9 -14 9 -27 23 -18 6 3 10 12 10 18 0 8 -3 7 -9 -2 -7
-11 -9 -11 -13 0 -3 9 -6 10 -11 2z"/>
<path d="M15 2052 c4 -7 1 -19 -5 -27 -6 -8 -10 -24 -7 -37 4 -21 4 -20 6 4 1
19 5 26 15 22 8 -3 14 -11 12 -17 -1 -7 -1 -9 1 -5 5 9 36 -2 45 -16 5 -7 8
-7 8 2 0 7 -11 17 -25 22 -14 5 -25 13 -25 18 0 4 -7 17 -16 28 -8 10 -13 13
-9 6z"/>
<path d="M140 2050 c-13 -9 -13 -10 0 -11 8 0 4 -4 -9 -8 -13 -3 -25 -14 -27
-24 -1 -9 2 -15 7 -11 5 3 7 10 3 16 -4 6 3 8 17 6 19 -2 24 2 25 20 1 12 1
22 0 22 0 0 -8 -5 -16 -10z"/>
<path d="M597 2049 c7 -7 15 -10 18 -7 3 3 -2 9 -12 12 -14 6 -15 5 -6 -5z"/>
<path d="M2380 2020 c-8 -25 -19 -40 -29 -39 -10 0 -12 2 -3 6 6 2 12 9 12 14
0 4 -7 6 -15 3 -16 -7 -12 -39 7 -59 6 -6 7 -3 3 10 -5 15 -4 17 3 6 6 -8 9
-24 6 -35 -3 -21 -3 -21 12 -1 9 11 20 29 25 40 10 19 9 19 -5 2 -13 -17 -14
-16 -10 15 2 18 6 43 10 56 11 39 -2 24 -16 -18z"/>
<path d="M2535 2050 c-3 -5 1 -10 9 -10 9 0 16 5 16 10 0 6 -4 10 -9 10 -6 0
-13 -4 -16 -10z"/>
<path d="M250 2035 c-11 -13 -11 -18 0 -28 10 -9 11 -9 6 1 -4 7 -2 19 4 27 7
8 10 15 7 15 -2 0 -10 -7 -17 -15z"/>
<path d="M349 2033 c-13 -17 -13 -17 6 -3 11 8 22 16 24 17 2 2 0 3 -6 3 -6 0
-17 -8 -24 -17z"/>
<path d="M750 2040 c0 -5 9 -8 20 -7 21 1 18 10 -5 13 -8 1 -15 -2 -15 -6z"/>
<path d="M1411 2034 c0 -11 3 -14 6 -6 3 7 2 16 -1 19 -3 4 -6 -2 -5 -13z"/>
<path d="M1635 2030 l-40 -17 32 1 c18 1 35 7 38 15 3 7 12 11 20 7 8 -3 16
-2 19 2 9 14 -29 10 -69 -8z"/>
<path d="M75 2030 c-4 -6 -11 -7 -17 -4 -7 4 -8 2 -4 -5 6 -9 11 -9 22 0 14
11 18 19 10 19 -3 0 -8 -5 -11 -10z"/>
<path d="M811 2024 c0 -11 3 -14 6 -6 3 7 2 16 -1 19 -3 4 -6 -2 -5 -13z"/>
<path d="M597 2014 c5 -14 3 -16 -13 -10 -30 12 -32 12 -31 1 1 -5 8 -9 15 -7
8 2 11 -1 8 -6 -3 -6 2 -8 14 -5 21 6 27 28 10 38 -6 4 -7 -1 -3 -11z"/>
<path d="M1520 2020 c-11 -7 -11 -10 -2 -10 8 0 10 -5 6 -12 -4 -7 -3 -9 1 -5
7 6 17 37 12 37 -1 0 -9 -5 -17 -10z"/>
<path d="M2441 2014 c0 -11 3 -14 6 -6 3 7 2 16 -1 19 -3 4 -6 -2 -5 -13z"/>
<path d="M355 2010 c-4 -6 -11 -7 -17 -4 -7 4 -8 2 -4 -4 7 -12 36 -5 36 9 0
12 -7 11 -15 -1z"/>
<path d="M1560 2016 c0 -2 7 -7 16 -10 8 -3 12 -2 9 4 -6 10 -25 14 -25 6z"/>
<path d="M680 2001 c0 -6 4 -13 10 -16 6 -3 7 1 4 9 -7 18 -14 21 -14 7z"/>
<path d="M1346 1998 c3 -4 9 -8 15 -8 5 0 9 4 9 8 0 5 -7 9 -15 9 -8 0 -12 -4
-9 -9z"/>
<path d="M1410 2001 c0 -6 4 -13 10 -16 6 -3 7 1 4 9 -7 18 -14 21 -14 7z"/>
<path d="M220 1986 c0 -9 5 -16 10 -16 6 0 10 4 10 9 0 6 -4 13 -10 16 -5 3
-10 -1 -10 -9z"/>
<path d="M1560 1990 c0 -5 5 -10 11 -10 5 0 7 5 4 10 -3 6 -8 10 -11 10 -2 0
-4 -4 -4 -10z"/>
<path d="M1613 1985 c0 -8 4 -12 9 -9 5 3 6 10 3 15 -9 13 -12 11 -12 -6z"/>
<path d="M2462 1970 c0 -14 2 -19 5 -12 2 6 2 18 0 25 -3 6 -5 1 -5 -13z"/>
<path d="M2576 1973 c-6 -14 -5 -15 5 -6 7 7 10 15 7 18 -3 3 -9 -2 -12 -12z"/>
<path d="M645 1958 l-20 -21 23 12 c12 6 22 16 22 21 0 13 -2 12 -25 -12z"/>
<path d="M1350 1976 c0 -2 7 -7 16 -10 8 -3 12 -2 9 4 -6 10 -25 14 -25 6z"/>
<path d="M43 1964 c4 -4 1 -14 -6 -23 -11 -14 -10 -15 8 -1 11 8 21 15 23 16
2 1 -5 5 -15 8 -9 4 -14 4 -10 0z"/>
<path d="M157 1959 c7 -7 15 -10 18 -7 3 3 -2 9 -12 12 -14 6 -15 5 -6 -5z"/>
<path d="M1559 1962 c11 -8 10 -11 -4 -19 -15 -9 -16 -11 -1 -16 10 -4 16 -1
16 8 0 8 0 18 1 22 0 4 -5 9 -13 11 -10 3 -10 1 1 -6z"/>
<path d="M1345 1950 c3 -5 8 -10 11 -10 2 0 4 5 4 10 0 6 -5 10 -11 10 -5 0
-7 -4 -4 -10z"/>
<path d="M1385 1950 c-3 -6 1 -7 9 -4 18 7 21 14 7 14 -6 0 -13 -4 -16 -10z"/>
<path d="M1421 1957 c2 -1 13 -9 24 -17 19 -14 19 -14 6 3 -7 9 -18 17 -24 17
-6 0 -8 -1 -6 -3z"/>
<path d="M1480 1945 c-11 -13 -10 -14 4 -9 9 3 16 10 16 15 0 13 -6 11 -20 -6z"/>
<path d="M2275 1943 c-14 -32 -13 -41 4 -38 9 2 21 4 26 5 6 0 2 5 -7 11 -10
5 -15 16 -12 24 8 21 -2 19 -11 -2z"/>
<path d="M2300 1951 c0 -6 4 -13 10 -16 6 -3 7 1 4 9 -7 18 -14 21 -14 7z"/>
<path d="M135 1940 c3 -5 8 -10 11 -10 2 0 4 5 4 10 0 6 -5 10 -11 10 -5 0 -7
-4 -4 -10z"/>
<path d="M1406 1928 c3 -5 10 -6 15 -3 13 9 11 12 -6 12 -8 0 -12 -4 -9 -9z"/>
<path d="M815 1910 c-3 -5 -1 -10 4 -10 6 0 11 5 11 10 0 6 -2 10 -4 10 -3 0
-8 -4 -11 -10z"/>
<path d="M1386 1912 c-3 -5 1 -9 9 -9 8 0 12 4 9 9 -3 4 -7 8 -9 8 -2 0 -6 -4
-9 -8z"/>
<path d="M2386 1904 c-5 -13 -4 -14 7 -6 8 7 17 9 20 5 4 -3 7 -1 7 5 0 18
-27 14 -34 -4z"/>
<path d="M539 1893 c-13 -16 -12 -17 4 -4 9 7 17 15 17 17 0 8 -8 3 -21 -13z"/>
<path d="M1305 1901 c-3 -6 6 -8 20 -7 34 4 40 11 10 14 -13 1 -27 -2 -30 -7z"/>
<path d="M2467 1889 c7 -7 15 -10 18 -7 3 3 -2 9 -12 12 -14 6 -15 5 -6 -5z"/>
<path d="M1430 1865 c0 -9 5 -15 11 -13 6 2 11 8 11 13 0 5 -5 11 -11 13 -6 2
-11 -4 -11 -13z"/>
<path d="M2350 1876 c0 -2 8 -10 18 -17 15 -13 16 -12 3 4 -13 16 -21 21 -21
13z"/>
<path d="M645 1841 c-6 -11 13 -26 22 -17 4 3 1 6 -6 6 -7 0 -9 5 -6 10 3 6 4
10 1 10 -3 0 -7 -4 -11 -9z"/>
<path d="M75 1830 c-3 -6 1 -7 9 -4 18 7 21 14 7 14 -6 0 -13 -4 -16 -10z"/>
<path d="M133 1827 c0 -8 6 -14 13 -14 7 0 10 6 7 14 -3 7 -8 13 -12 13 -4 0
-8 -6 -8 -13z"/>
<path d="M450 1826 c0 -2 8 -10 18 -17 15 -13 16 -12 3 4 -13 16 -21 21 -21
13z"/>
<path d="M2310 1818 c0 -4 4 -8 9 -8 6 0 12 4 15 8 3 5 -1 9 -9 9 -8 0 -15 -4
-15 -9z"/>
<path d="M2346 1811 c-4 -5 3 -7 14 -4 23 6 26 13 6 13 -8 0 -17 -4 -20 -9z"/>
<path d="M80 1800 c0 -5 5 -10 11 -10 5 0 7 5 4 10 -3 6 -8 10 -11 10 -2 0 -4
-4 -4 -10z"/>
<path d="M2569 1793 c-10 -11 -10 -14 -1 -9 6 4 12 3 12 -3 0 -5 -8 -15 -17
-20 -12 -7 -13 -10 -4 -11 7 0 11 -6 8 -15 -4 -8 -3 -17 2 -19 4 -3 8 0 8 7 1
7 3 29 6 50 6 42 5 44 -14 20z"/>
<path d="M507 1785 c3 -8 9 -12 14 -9 12 7 11 11 -5 17 -10 4 -13 1 -9 -8z"/>
<path d="M76 1766 c5 -13 39 -15 49 -3 3 4 2 5 -1 3 -3 -3 -17 -1 -30 4 -17 7
-22 6 -18 -4z"/>
<path d="M2268 1773 c6 -2 18 -2 25 0 6 3 1 5 -13 5 -14 0 -19 -2 -12 -5z"/>
<path d="M140 1748 c0 -11 12 -10 30 2 12 7 10 9 -8 7 -12 0 -22 -5 -22 -9z"/>
<path d="M2505 1740 c-3 -5 1 -10 10 -10 9 0 13 5 10 10 -3 6 -8 10 -10 10 -2
0 -7 -4 -10 -10z"/>
<path d="M556 1727 c3 -10 9 -15 12 -12 3 3 0 11 -7 18 -10 9 -11 8 -5 -6z"/>
<path d="M37 1719 c7 -7 15 -10 18 -7 3 3 -2 9 -12 12 -14 6 -15 5 -6 -5z"/>
<path d="M116 1721 c-4 -5 3 -7 14 -4 23 6 26 13 6 13 -8 0 -17 -4 -20 -9z"/>
<path d="M290 1706 c0 -9 5 -16 10 -16 6 0 10 4 10 9 0 6 -4 13 -10 16 -5 3
-10 -1 -10 -9z"/>
<path d="M25 1646 c0 -45 3 -52 20 -54 18 -1 18 0 2 9 -13 8 -15 14 -7 29 6
12 7 21 0 25 -5 3 -7 12 -4 19 3 8 2 16 -3 19 -4 3 -8 -18 -8 -47z"/>
<path d="M235 1689 c-4 -6 -5 -12 -2 -15 2 -3 7 2 10 11 7 17 1 20 -8 4z"/>
<path d="M55 1680 c-3 -5 -1 -10 4 -10 6 0 11 5 11 10 0 6 -2 10 -4 10 -3 0
-8 -4 -11 -10z"/>
<path d="M2201 1674 c0 -11 3 -14 6 -6 3 7 2 16 -1 19 -3 4 -6 -2 -5 -13z"/>
<path d="M2265 1681 c-3 -5 -2 -12 3 -15 5 -3 9 1 9 9 0 17 -3 19 -12 6z"/>
<path d="M2567 1669 c4 -13 8 -18 11 -10 2 7 -1 18 -6 23 -8 8 -9 4 -5 -13z"/>
<path d="M123 1659 c6 -10 16 -15 21 -12 6 4 5 8 -2 11 -7 2 -10 7 -8 11 3 4
-1 8 -8 8 -11 0 -12 -4 -3 -18z"/>
<path d="M196 1665 c-19 -15 -19 -15 2 -15 13 0 22 6 22 15 0 18 0 18 -24 0z"/>
<path d="M71 1644 c0 -11 3 -14 6 -6 3 7 2 16 -1 19 -3 4 -6 -2 -5 -13z"/>
<path d="M258 1653 c7 -3 16 -2 19 1 4 3 -2 6 -13 5 -11 0 -14 -3 -6 -6z"/>
<path d="M2465 1650 c-3 -5 1 -10 10 -10 9 0 13 5 10 10 -3 6 -8 10 -10 10 -2
0 -7 -4 -10 -10z"/>
<path d="M2356 1637 c3 -10 9 -15 12 -12 3 3 0 11 -7 18 -10 9 -11 8 -5 -6z"/>
<path d="M2246 1623 c-6 -14 -5 -15 5 -6 7 7 10 15 7 18 -3 3 -9 -2 -12 -12z"/>
<path d="M2196 1616 c7 -19 20 -21 30 -3 4 6 4 9 -1 5 -4 -4 -14 -3 -22 4 -11
8 -12 7 -7 -6z"/>
<path d="M82 1608 c15 -13 15 -15 0 -25 -15 -10 -15 -11 2 -9 29 4 31 23 4 36
-20 10 -21 9 -6 -2z"/>
<path d="M179 1603 c-13 -16 -12 -17 4 -4 9 7 17 15 17 17 0 8 -8 3 -21 -13z"/>
<path d="M2230 1581 c0 -6 4 -13 10 -16 6 -3 7 1 4 9 -7 18 -14 21 -14 7z"/>
<path d="M2400 1581 c0 -6 4 -13 10 -16 6 -3 7 1 4 9 -7 18 -14 21 -14 7z"/>
<path d="M2186 1548 c3 -5 10 -6 15 -3 13 9 11 12 -6 12 -8 0 -12 -4 -9 -9z"/>
<path d="M2311 1544 c0 -11 3 -14 6 -6 3 7 2 16 -1 19 -3 4 -6 -2 -5 -13z"/>
<path d="M522 1536 c7 -8 15 -12 17 -11 5 6 -10 25 -20 25 -5 0 -4 -6 3 -14z"/>
<path d="M2504 1542 c3 -5 0 -13 -6 -15 -8 -3 -6 -6 5 -6 19 -1 23 14 5 25 -6
4 -8 3 -4 -4z"/>
<path d="M435 1530 c-3 -5 -1 -10 4 -10 6 0 11 5 11 10 0 6 -2 10 -4 10 -3 0
-8 -4 -11 -10z"/>
<path d="M2206 1522 c6 -4 10 -17 9 -29 -2 -29 1 -29 16 -2 9 17 8 23 -2 30
-17 11 -39 12 -23 1z"/>
<path d="M2428 1523 c7 -3 16 -2 19 1 4 3 -2 6 -13 5 -11 0 -14 -3 -6 -6z"/>
<path d="M365 1511 c-3 -5 -1 -12 5 -16 5 -3 10 1 10 9 0 18 -6 21 -15 7z"/>
<path d="M420 1502 c0 -5 9 -18 19 -29 11 -12 17 -24 13 -29 -4 -4 -2 -4 5 0
9 5 7 14 -5 36 -16 29 -32 39 -32 22z"/>
<path d="M477 1486 c-4 -10 -1 -13 8 -9 8 3 12 9 9 14 -7 12 -11 11 -17 -5z"/>
<path d="M2432 1480 c-9 -15 -9 -21 1 -26 6 -4 9 -4 5 1 -4 4 -3 14 4 22 6 7
9 15 7 18 -3 2 -10 -4 -17 -15z"/>
<path d="M2506 1492 c-3 -5 -1 -14 5 -22 7 -12 9 -12 9 -1 0 11 3 11 15 1 13
-11 14 -10 9 3 -6 18 -31 30 -38 19z"/>
<path d="M70 1485 c0 -5 5 -17 10 -25 5 -8 10 -10 10 -5 0 6 -5 17 -10 25 -5
8 -10 11 -10 5z"/>
<path d="M122 1473 c6 -23 -13 -48 -27 -35 -5 4 -5 1 -1 -6 7 -11 11 -10 25 2
10 9 22 13 26 9 5 -5 3 1 -5 11 -8 11 -13 21 -12 23 2 3 0 8 -4 11 -4 4 -5 -3
-2 -15z"/>
<path d="M390 1468 c0 -4 4 -8 9 -8 6 0 12 4 15 8 3 5 -1 9 -9 9 -8 0 -15 -4
-15 -9z"/>
<path d="M536 1463 c-6 -14 -5 -15 5 -6 7 7 10 15 7 18 -3 3 -9 -2 -12 -12z"/>
<path d="M2577 1466 c-4 -10 -1 -13 9 -9 15 6 19 23 5 23 -5 0 -11 -7 -14 -14z"/>
<path d="M2 1442 c1 -17 7 -29 14 -29 7 0 11 4 8 8 -2 4 2 10 8 12 8 3 6 6 -5
6 -10 1 -16 5 -12 10 3 5 1 12 -4 15 -5 4 -9 -6 -9 -22z"/>
<path d="M317 1451 c-3 -11 1 -22 9 -25 9 -3 11 0 7 11 -4 11 -2 14 5 9 8 -5
10 -2 6 8 -8 22 -21 20 -27 -3z"/>
<path d="M2352 1454 c10 -10 20 -16 22 -13 3 3 -5 11 -17 18 -21 13 -21 12 -5
-5z"/>
<path d="M2455 1460 c-3 -5 -1 -10 4 -10 6 0 11 5 11 10 0 6 -2 10 -4 10 -3 0
-8 -4 -11 -10z"/>
<path d="M160 1450 c0 -6 9 -18 19 -27 11 -9 18 -20 16 -24 -3 -4 2 -9 10 -13
27 -10 21 9 -12 42 -18 18 -33 28 -33 22z"/>
<path d="M403 1440 c-15 -13 -23 -16 -26 -7 -3 9 -8 9 -18 -2 -8 -8 -9 -11 -3
-8 7 4 15 -1 19 -11 6 -16 7 -16 16 1 6 9 14 15 18 12 5 -2 11 4 14 15 6 25 6
25 -20 0z"/>
<path d="M1670 1450 c-8 -5 -10 -10 -5 -10 6 0 17 5 25 10 8 5 11 10 5 10 -5
0 -17 -5 -25 -10z"/>
<path d="M2485 1441 c-6 -11 13 -26 22 -17 4 3 1 6 -6 6 -7 0 -9 5 -6 10 3 6
4 10 1 10 -3 0 -7 -4 -11 -9z"/>
<path d="M2150 1414 c0 -14 4 -22 10 -19 6 3 10 -2 10 -12 0 -14 2 -15 9 -4 5
7 13 11 19 7 6 -3 13 -2 17 4 3 5 1 11 -4 11 -6 1 -15 3 -21 4 -5 1 -16 3 -22
4 -10 1 -10 3 0 10 11 7 11 9 -2 14 -12 5 -16 0 -16 -19z"/>
<path d="M2415 1430 c3 -5 8 -10 11 -10 2 0 4 5 4 10 0 6 -5 10 -11 10 -5 0
-7 -4 -4 -10z"/>
<path d="M54 1414 c-18 -14 -18 -15 4 -4 12 6 22 13 22 15 0 8 -5 6 -26 -11z"/>
<path d="M257 1424 c-4 -4 2 -14 13 -21 11 -8 17 -19 14 -25 -4 -7 -2 -8 4 -4
7 4 12 14 12 22 0 8 -4 13 -9 9 -6 -3 -14 2 -18 10 -5 9 -12 12 -16 9z"/>
<path d="M453 1423 c4 -7 -2 -18 -15 -27 -12 -9 -25 -12 -28 -6 -3 5 -11 5
-20 0 -9 -5 -19 -5 -26 1 -7 6 -15 4 -23 -5 -8 -10 -9 -16 -1 -21 5 -3 10 -1
10 4 0 6 5 11 10 11 7 0 7 -6 0 -19 -7 -14 -7 -22 0 -26 6 -4 7 -11 4 -17 -5
-7 -2 -8 5 -3 9 5 9 11 3 17 -19 19 -2 34 36 31 28 -2 33 0 22 8 -12 8 -8 10
16 7 23 -3 30 0 31 13 1 10 -6 24 -15 31 -10 8 -13 9 -9 1z"/>
<path d="M2443 1418 c6 -18 -19 -33 -28 -18 -4 6 -12 10 -18 10 -17 -1 23 -23
47 -27 11 -2 17 0 13 3 -4 4 1 13 11 21 9 8 11 11 3 7 -7 -3 -18 0 -23 7 -8
11 -9 10 -5 -3z"/>
<path d="M2540 1421 c0 -6 4 -13 10 -16 6 -3 7 1 4 9 -7 18 -14 21 -14 7z"/>
<path d="M103 1384 c1 -13 7 -20 19 -19 26 2 35 15 11 15 -12 0 -23 6 -26 13
-3 6 -5 3 -4 -9z"/>
<path d="M2475 1390 c-3 -5 -1 -10 4 -10 6 0 11 5 11 10 0 6 -2 10 -4 10 -3 0
-8 -4 -11 -10z"/>
<path d="M160 1374 c0 -8 5 -12 10 -9 6 4 8 11 5 16 -9 14 -15 11 -15 -7z"/>
<path d="M2118 1385 c-4 -4 -4 -13 -2 -20 3 -7 -2 -15 -12 -19 -12 -5 -14 -9
-5 -20 12 -14 5 -46 -13 -58 -17 -12 16 -9 34 2 8 5 10 10 3 10 -6 0 -9 9 -6
20 3 11 10 20 15 20 6 0 8 -7 5 -15 -7 -17 12 -32 22 -18 3 5 15 13 25 16 10
4 16 10 12 14 -3 3 1 15 11 25 17 19 11 23 -31 18 -10 -1 -23 4 -27 12 -7 9
-8 7 -6 -7 1 -11 6 -25 10 -31 4 -8 -1 -11 -17 -10 -18 1 -22 4 -14 13 10 13
7 59 -4 48z m70 -54 c-7 -12 -17 -21 -22 -21 -5 0 -6 3 -3 7 4 3 2 12 -4 19
-8 9 -5 11 10 7 13 -3 21 -1 21 8 0 7 3 10 6 7 3 -3 -1 -15 -8 -27z"/>
<path d="M2256 1371 c-14 -15 -15 -21 -4 -27 7 -4 10 -3 5 1 -4 5 0 17 10 27
9 10 14 18 11 18 -3 0 -13 -9 -22 -19z"/>
<path d="M186 1363 c-6 -14 -5 -15 5 -6 7 7 10 15 7 18 -3 3 -9 -2 -12 -12z"/>
<path d="M236 1367 c3 -10 9 -15 12 -12 3 3 0 11 -7 18 -10 9 -11 8 -5 -6z"/>
<path d="M2537 1363 c9 -7 20 -13 23 -13 4 0 7 6 7 13 0 6 -11 12 -24 12 -21
0 -22 -1 -6 -12z"/>
<path d="M15 1360 c3 -5 1 -11 -4 -15 -12 -7 -3 -35 11 -35 5 0 16 -7 24 -15
13 -13 13 -18 1 -35 -7 -11 -17 -17 -22 -12 -5 4 -5 1 0 -7 7 -11 11 -11 22 5
12 16 15 17 24 4 8 -11 12 -12 16 -2 2 6 9 10 14 7 5 -4 6 0 3 8 -3 8 -1 18 5
22 7 4 11 -3 11 -17 0 -16 3 -19 8 -10 5 7 15 11 23 9 8 -2 11 -2 6 0 -4 3 -5
9 -2 14 4 5 0 6 -8 3 -8 -3 -17 -1 -20 3 -3 5 -20 8 -36 7 -37 -2 -43 22 -8
37 l22 10 -23 -5 c-13 -2 -26 2 -31 12 -5 8 -16 17 -25 18 -9 1 -14 -2 -11 -6z
m35 -30 c0 -5 -6 -10 -14 -10 -8 0 -18 5 -21 10 -3 6 3 10 14 10 12 0 21 -4
21 -10z m40 -60 c0 -5 -4 -10 -10 -10 -5 0 -10 5 -10 10 0 6 5 10 10 10 6 0
10 -4 10 -10z"/>
<path d="M1569 1353 c-13 -16 -12 -17 4 -4 9 7 17 15 17 17 0 8 -8 3 -21 -13z"/>
<path d="M2285 1360 c3 -5 8 -10 11 -10 2 0 4 5 4 10 0 6 -5 10 -11 10 -5 0
-7 -4 -4 -10z"/>
<path d="M1265 1350 c3 -5 8 -10 11 -10 2 0 4 5 4 10 0 6 -5 10 -11 10 -5 0
-7 -4 -4 -10z"/>
<path d="M452 1338 c-7 -7 -12 -19 -12 -27 0 -11 -3 -12 -8 -4 -4 6 -7 -5 -7
-27 0 -21 3 -36 7 -34 5 3 8 16 8 30 0 13 5 24 11 24 5 0 7 -4 4 -10 -3 -5 -1
-10 5 -10 7 0 10 7 6 15 -3 10 1 15 12 16 9 0 12 3 5 5 -7 3 -9 12 -6 20 6 17
-8 19 -25 2z m11 -13 c-3 -9 -8 -14 -10 -11 -3 3 -2 9 2 15 9 16 15 13 8 -4z"/>
<path d="M1111 1336 c-15 -9 -20 -16 -12 -20 6 -4 11 -2 11 4 0 7 7 10 15 7 8
-4 17 -2 20 3 10 15 -10 19 -34 6z"/>
<path d="M1535 1341 c-3 -5 -2 -12 3 -15 5 -3 9 1 9 9 0 17 -3 19 -12 6z"/>
<path d="M167 1327 c-3 -8 1 -14 8 -14 7 0 11 6 8 14 -3 7 -6 13 -8 13 -2 0
-5 -6 -8 -13z"/>
<path d="M237 1323 c3 -7 6 -13 8 -13 2 0 5 6 8 13 3 8 -1 14 -8 14 -7 0 -11
-6 -8 -14z"/>
<path d="M309 1337 c-9 -11 -3 -47 7 -47 8 0 14 5 14 10 0 6 -4 10 -10 10 -5
0 -10 4 -10 8 0 5 7 9 15 9 8 0 15 -6 15 -13 0 -7 4 -16 10 -19 6 -4 7 2 2 16
-7 17 -36 35 -43 26z"/>
<path d="M2500 1336 c0 -2 7 -7 16 -10 8 -3 12 -2 9 4 -6 10 -25 14 -25 6z"/>
<path d="M2545 1330 c-3 -6 1 -7 9 -4 18 7 21 14 7 14 -6 0 -13 -4 -16 -10z"/>
<path d="M205 1321 c-3 -5 -2 -12 3 -15 5 -3 9 1 9 9 0 17 -3 19 -12 6z"/>
<path d="M1291 1323 c-1 -6 -4 -20 -7 -30 -5 -17 -5 -17 6 0 6 10 9 23 6 30
-3 9 -5 9 -5 0z"/>
<path d="M2250 1326 c0 -2 7 -7 16 -10 8 -3 12 -2 9 4 -6 10 -25 14 -25 6z"/>
<path d="M125 1310 c3 -5 8 -10 11 -10 2 0 4 5 4 10 0 6 -5 10 -11 10 -5 0 -7
-4 -4 -10z"/>
<path d="M1170 1310 c0 -6 7 -10 15 -10 8 0 15 2 15 4 0 2 -7 6 -15 10 -8 3
-15 1 -15 -4z"/>
<path d="M1316 1300 c3 -14 10 -29 14 -34 13 -13 6 16 -8 39 -12 19 -13 18 -6
-5z"/>
<path d="M1370 1311 c0 -5 6 -14 14 -20 12 -10 13 -8 9 8 -5 21 -23 30 -23 12z"/>
<path d="M1131 1296 c-9 -10 -9 -16 -1 -21 6 -4 14 -4 17 -1 4 3 1 6 -6 6 -7
0 -9 5 -6 10 5 8 12 7 23 -2 15 -12 16 -11 3 5 -16 21 -16 21 -30 3z"/>
<path d="M2250 1290 c6 -11 15 -20 21 -20 6 0 6 7 -1 20 -6 11 -15 20 -21 20
-6 0 -6 -7 1 -20z"/>
<path d="M1496 1292 c-3 -5 1 -9 9 -9 8 0 15 4 15 9 0 4 -4 8 -9 8 -6 0 -12
-4 -15 -8z"/>
<path d="M1185 1265 c0 -13 2 -26 5 -29 3 -3 6 5 5 19 0 13 -2 26 -5 29 -3 3
-6 -5 -5 -19z"/>
<path d="M1245 1270 c3 -5 8 -10 11 -10 2 0 4 5 4 10 0 6 -5 10 -11 10 -5 0
-7 -4 -4 -10z"/>
<path d="M315 1260 c-4 -6 -10 -8 -15 -5 -4 3 -13 -2 -20 -10 -11 -13 -10 -14
6 -9 10 4 24 11 31 16 7 5 13 4 16 -4 4 -9 6 -9 6 -1 1 16 -16 26 -24 13z"/>
<path d="M1073 1254 c1 -23 34 -31 34 -8 0 8 -6 13 -13 10 -7 -3 -15 0 -17 7
-3 7 -5 3 -4 -9z"/>
<path d="M1395 1259 c-4 -6 -5 -12 -2 -15 2 -3 7 2 10 11 7 17 1 20 -8 4z"/>
<path d="M1155 1249 c-4 -6 -5 -12 -2 -15 2 -3 7 2 10 11 7 17 1 20 -8 4z"/>
<path d="M2093 1250 c-27 -11 -30 -19 -5 -16 9 2 20 -2 24 -8 5 -6 8 -2 8 12
0 12 -1 22 -2 21 -2 0 -13 -4 -25 -9z"/>
<path d="M2153 1243 c0 -10 4 -10 16 -1 9 7 18 13 20 15 2 1 -5 1 -16 0 -11 0
-20 -7 -20 -14z"/>
<path d="M2213 1246 c-4 -5 -1 -6 7 -1 10 6 12 4 7 -8 -8 -22 -5 -21 15 2 16
19 15 20 -3 18 -11 -1 -23 -6 -26 -11z"/>
<path d="M1213 1235 c-3 -9 -3 -18 -1 -21 3 -3 8 4 11 16 6 23 -1 27 -10 5z"/>
<path d="M210 1230 c0 -6 7 -10 15 -10 8 0 15 2 15 4 0 2 -7 6 -15 10 -8 3
-15 1 -15 -4z"/>
<path d="M1563 1233 c4 -3 2 -12 -4 -19 -8 -9 -5 -11 11 -7 16 4 18 8 9 19 -6
8 -14 14 -17 14 -3 0 -2 -3 1 -7z"/>
<path d="M2127 1221 c-4 -17 -3 -21 5 -13 5 5 8 16 6 23 -3 8 -7 3 -11 -10z"/>
<path d="M2260 1229 c0 -5 5 -7 10 -4 6 3 10 8 10 11 0 2 -4 4 -10 4 -5 0 -10
-5 -10 -11z"/>
<path d="M1285 1220 c-3 -6 1 -7 9 -4 18 7 21 14 7 14 -6 0 -13 -4 -16 -10z"/>
<path d="M1524 1214 c1 -8 4 -15 7 -16 2 -2 3 -1 2 1 -2 2 2 9 7 16 7 8 5 12
-4 12 -8 0 -13 -6 -12 -13z"/>
<path d="M316 1203 c-4 -9 -3 -20 1 -24 4 -4 9 3 9 17 2 28 -1 31 -10 7z"/>
<path d="M1071 1199 c7 -15 14 -18 21 -11 6 6 18 8 27 5 12 -3 11 -1 -3 11
-16 12 -22 13 -28 3 -6 -9 -8 -9 -8 1 0 6 -5 12 -10 12 -7 0 -7 -7 1 -21z"/>
<path d="M1330 1216 c0 -2 6 -9 13 -15 10 -8 14 -7 14 4 0 8 -6 15 -14 15 -7
0 -13 -2 -13 -4z"/>
<path d="M2150 1216 c0 -2 6 -9 13 -15 10 -8 14 -7 14 4 0 8 -6 15 -14 15 -7
0 -13 -2 -13 -4z"/>
<path d="M406 1198 c5 -8 2 -9 -10 -5 -10 4 -15 3 -11 -3 8 -12 32 -13 39 -1
3 5 -1 12 -10 15 -10 4 -13 2 -8 -6z"/>
<path d="M1235 1200 c3 -5 10 -10 16 -10 5 0 9 5 9 10 0 6 -7 10 -16 10 -8 0
-12 -4 -9 -10z"/>
<path d="M2203 1190 c-13 -5 -23 -15 -23 -21 0 -9 3 -9 14 0 7 6 20 9 29 5 8
-3 18 -1 22 5 4 7 0 8 -11 4 -12 -4 -15 -3 -10 5 8 14 8 14 -21 2z"/>
<path d="M2280 1188 c0 -9 5 -20 11 -23 17 -11 18 -2 3 19 -12 17 -14 17 -14
4z"/>
<path d="M70 1180 c-9 -6 -10 -10 -3 -10 6 0 15 5 18 10 8 12 4 12 -15 0z"/>
<path d="M175 1159 c-5 -16 -9 -18 -21 -8 -12 9 -13 9 -9 -3 4 -9 18 -15 32
-15 14 0 20 3 14 7 -7 3 -9 14 -5 23 3 9 4 17 1 17 -3 0 -9 -9 -12 -21z"/>
<path d="M266 1168 c3 -5 10 -6 15 -3 13 9 11 12 -6 12 -8 0 -12 -4 -9 -9z"/>
<path d="M440 1170 c0 -5 7 -7 15 -4 8 4 15 8 15 10 0 2 -7 4 -15 4 -8 0 -15
-4 -15 -10z"/>
<path d="M990 1176 c0 -2 7 -7 16 -10 8 -3 12 -2 9 4 -6 10 -25 14 -25 6z"/>
<path d="M1394 1169 c-4 -7 -3 -9 4 -5 5 3 13 0 15 -6 4 -9 6 -10 6 -1 1 17
-16 25 -25 12z"/>
<path d="M2012 1168 c-14 -14 -16 -48 -3 -48 5 0 11 14 13 30 3 17 4 30 3 30
0 0 -6 -5 -13 -12z"/>
<path d="M2134 1168 c-4 -7 -4 -10 1 -6 4 4 15 2 24 -5 14 -11 14 -10 2 6 -16
20 -18 21 -27 5z"/>
<path d="M345 1160 c-3 -6 1 -7 9 -4 18 7 21 14 7 14 -6 0 -13 -4 -16 -10z"/>
<path d="M1032 1150 c-16 -27 -15 -39 1 -15 9 12 19 15 28 10 12 -8 12 -6 0 8
-16 21 -14 21 -29 -3z"/>
<path d="M109 1153 c-6 -35 -4 -50 6 -50 6 0 12 6 12 13 0 7 -5 11 -10 7 -5
-3 -6 3 -2 16 3 11 4 21 1 21 -3 0 -7 -3 -7 -7z"/>
<path d="M243 1153 c9 -2 17 -12 17 -21 0 -12 -3 -13 -12 -4 -7 7 -17 12 -22
12 -6 0 1 -8 14 -17 14 -10 27 -17 30 -16 8 3 32 -48 26 -54 -3 -3 -17 8 -31
23 -15 16 -23 23 -19 15 4 -9 2 -12 -7 -9 -8 3 -13 12 -11 19 3 11 1 12 -10 1
-10 -10 -10 -14 0 -21 8 -4 10 -15 6 -26 -7 -18 -8 -18 -14 0 -6 18 -7 17 -12
-3 -4 -13 0 -26 11 -34 9 -7 13 -8 9 -4 -10 12 31 68 43 60 6 -4 5 -11 -2 -20
-10 -12 -9 -13 4 -9 8 4 18 2 22 -4 5 -10 -7 -15 -27 -12 -15 2 -8 -17 8 -23
10 -4 13 -2 8 6 -5 8 -2 9 9 5 12 -5 17 -1 17 12 0 10 7 22 15 25 9 3 15 11
14 18 -3 28 2 39 24 48 16 6 17 9 5 9 -19 1 -50 -37 -42 -51 3 -4 1 -8 -4 -8
-4 0 -19 20 -31 45 -14 28 -29 45 -39 44 -15 -1 -15 -2 1 -6z"/>
<path d="M310 1150 c0 -5 5 -10 11 -10 5 0 7 5 4 10 -3 6 -8 10 -11 10 -2 0
-4 -4 -4 -10z"/>
<path d="M426 1143 c4 -16 -1 -16 -27 -3 -13 7 -19 7 -19 0 0 -5 7 -10 15 -10
8 0 15 -4 15 -9 0 -5 6 -11 14 -14 9 -4 16 3 19 18 2 14 1 22 -4 20 -4 -3 -9
-2 -12 2 -2 5 -2 2 -1 -4z"/>
<path d="M1358 1143 c7 -3 16 -2 19 1 4 3 -2 6 -13 5 -11 0 -14 -3 -6 -6z"/>
<path d="M1490 1146 c0 -3 9 -10 19 -16 15 -7 22 -7 27 2 4 7 4 10 -1 6 -4 -4
-16 -3 -26 3 -11 5 -19 7 -19 5z"/>
<path d="M1295 1133 c3 -3 -2 -14 -11 -24 -12 -13 -12 -19 -3 -25 8 -4 10 -3
5 4 -4 7 -1 12 8 12 14 0 16 24 3 35 -4 3 -5 2 -2 -2z"/>
<path d="M2191 1118 c14 -27 25 -29 25 -4 0 14 -6 22 -17 22 -13 0 -15 -4 -8
-18z"/>
<path d="M2340 1126 c0 -2 7 -9 15 -16 9 -7 15 -8 15 -2 0 5 -7 12 -15 16 -8
3 -15 4 -15 2z"/>
<path d="M178 1113 c7 -3 16 -2 19 1 4 3 -2 6 -13 5 -11 0 -14 -3 -6 -6z"/>
<path d="M2326 1107 c3 -10 9 -15 12 -12 3 3 0 11 -7 18 -10 9 -11 8 -5 -6z"/>
<path d="M343 1098 c-2 -5 -1 -8 4 -9 4 0 16 -2 25 -4 9 -2 19 2 21 8 5 13
-42 17 -50 5z"/>
<path d="M1227 1101 c6 -7 9 -19 7 -26 -3 -6 3 -18 13 -26 16 -13 17 -12 5 3
-8 9 -11 21 -8 26 3 6 -2 16 -12 23 -14 11 -15 11 -5 0z"/>
<path d="M2476 1093 c-6 -14 -5 -15 5 -6 7 7 10 15 7 18 -3 3 -9 -2 -12 -12z"/>
<path d="M406 1092 c-3 -5 1 -9 9 -9 8 0 12 4 9 9 -3 4 -7 8 -9 8 -2 0 -6 -4
-9 -8z"/>
<path d="M2238 1084 c-6 -22 12 -28 29 -9 4 4 3 5 -4 1 -7 -3 -13 1 -15 11 -3
15 -5 15 -10 -3z"/>
<path d="M2294 1078 c0 -10 1 -18 3 -18 1 0 7 8 12 18 7 13 6 19 -2 19 -7 0
-13 -9 -13 -19z"/>
<path d="M150 1065 c0 -14 2 -25 4 -25 2 0 6 11 8 25 3 14 1 25 -3 25 -5 0 -9
-11 -9 -25z"/>
<path d="M1334 1079 c-11 -18 12 -32 33 -20 16 11 15 11 -6 5 -19 -5 -23 -3
-18 10 7 18 2 22 -9 5z"/>
<path d="M475 1067 c-10 -8 -14 -17 -9 -20 6 -3 15 3 22 14 14 23 12 24 -13 6z"/>
<path d="M2330 1075 c0 -7 30 -13 34 -7 3 4 -4 9 -15 9 -10 1 -19 0 -19 -2z"/>
<path d="M2535 1070 c3 -5 8 -10 11 -10 2 0 4 5 4 10 0 6 -5 10 -11 10 -5 0
-7 -4 -4 -10z"/>
<path d="M89 1053 c-13 -16 -12 -17 4 -4 9 7 17 15 17 17 0 8 -8 3 -21 -13z"/>
<path d="M2190 1052 c0 -15 4 -20 16 -15 9 3 12 9 7 12 -4 3 -11 10 -15 15 -5
5 -8 0 -8 -12z"/>
<path d="M1035 1050 c3 -5 8 -10 11 -10 2 0 4 5 4 10 0 6 -5 10 -11 10 -5 0
-7 -4 -4 -10z"/>
<path d="M2320 1050 c0 -6 7 -10 15 -10 8 0 15 2 15 4 0 2 -7 6 -15 10 -8 3
-15 1 -15 -4z"/>
<path d="M1115 1040 c3 -5 8 -10 11 -10 2 0 4 5 4 10 0 6 -5 10 -11 10 -5 0
-7 -4 -4 -10z"/>
<path d="M2260 1044 c1 -14 24 -39 40 -42 13 -3 13 -2 0 10 -8 7 -21 19 -27
27 -7 8 -13 11 -13 5z"/>
<path d="M510 1029 c0 -5 5 -7 10 -4 6 3 10 8 10 11 0 2 -4 4 -10 4 -5 0 -10
-5 -10 -11z"/>
<path d="M2409 1023 c-13 -17 -13 -17 6 -3 11 8 22 16 24 17 2 2 0 3 -6 3 -6
0 -17 -8 -24 -17z"/>
<path d="M460 1020 c18 -12 40 -13 40 -2 0 4 -12 9 -27 10 -22 1 -24 0 -13 -8z"/>
<path d="M1153 1018 c-3 -6 -1 -8 5 -4 5 3 12 2 14 -4 2 -5 9 -6 16 -1 10 6 9
10 -7 14 -12 3 -24 0 -28 -5z"/>
<path d="M100 1016 c0 -2 7 -7 16 -10 8 -3 12 -2 9 4 -6 10 -25 14 -25 6z"/>
<path d="M1987 1013 c-4 -3 -7 -11 -7 -17 0 -6 5 -5 12 2 6 6 9 14 7 17 -3 3
-9 2 -12 -2z"/>
<path d="M2225 1010 c-3 -5 -1 -10 4 -10 6 0 11 5 11 10 0 6 -2 10 -4 10 -3 0
-8 -4 -11 -10z"/>
<path d="M1053 999 c9 -6 14 -15 11 -21 -4 -7 -2 -8 5 -4 14 9 -3 36 -23 36
-6 0 -3 -5 7 -11z"/>
<path d="M1090 999 c0 -5 5 -7 10 -4 6 3 10 8 10 11 0 2 -4 4 -10 4 -5 0 -10
-5 -10 -11z"/>
<path d="M2146 993 c-6 -14 -5 -15 5 -6 7 7 10 15 7 18 -3 3 -9 -2 -12 -12z"/>
<path d="M416 983 c-6 -14 -5 -15 5 -6 7 7 10 15 7 18 -3 3 -9 -2 -12 -12z"/>
<path d="M2253 981 c0 -11 5 -18 9 -15 4 3 5 11 1 19 -7 21 -12 19 -10 -4z"/>
<path d="M114 978 c-3 -4 2 -8 10 -8 8 0 17 4 20 8 3 5 -2 9 -10 9 -8 0 -17
-4 -20 -9z"/>
<path d="M245 980 c-4 -6 1 -7 11 -3 13 5 15 3 9 -7 -5 -9 -4 -11 4 -6 6 4 9
12 6 17 -8 12 -22 12 -30 -1z"/>
<path d="M365 970 c10 -11 20 -20 23 -20 3 0 -3 9 -13 20 -10 11 -20 20 -23
20 -3 0 3 -9 13 -20z"/>
<path d="M910 980 c-8 -5 -18 -6 -23 -3 -5 3 -6 -4 -2 -16 5 -17 2 -21 -17
-21 -18 0 -20 2 -8 10 13 8 12 10 -3 10 -14 0 -16 -6 -12 -27 6 -26 5 -27 -8
-10 -13 16 -15 16 -21 2 -3 -10 -2 -14 5 -10 6 4 10 1 8 -6 -4 -32 3 -43 12
-20 8 20 12 21 25 10 12 -10 15 -10 12 2 -2 8 -7 17 -13 21 -5 4 2 8 17 8 22
0 25 3 20 22 -4 18 -2 20 16 16 12 -4 24 -3 27 2 7 12 -20 19 -35 10z"/>
<path d="M1190 974 c-17 -9 -20 -14 -9 -14 9 0 22 7 29 15 15 18 13 18 -20 -1z"/>
<path d="M2390 981 c0 -6 4 -12 8 -15 5 -3 9 1 9 9 0 8 -4 15 -9 15 -4 0 -8
-4 -8 -9z"/>
<path d="M960 962 c0 -10 -7 -12 -26 -8 -17 5 -25 3 -23 -6 3 -26 -1 -38 -13
-35 -7 1 -12 -5 -13 -13 0 -8 -8 -14 -18 -14 -9 1 -14 -3 -11 -8 3 -5 -3 -12
-15 -15 -12 -3 -21 -12 -21 -19 0 -8 -5 -14 -11 -14 -5 0 -7 5 -4 10 3 6 2 10
-3 10 -6 0 -12 -7 -16 -15 -4 -12 1 -15 23 -13 16 1 36 -4 45 -11 11 -9 16
-10 16 -2 0 6 -4 11 -8 11 -4 0 -8 9 -8 19 0 16 3 18 15 8 12 -10 14 -9 9 4
-4 11 3 24 22 37 28 21 28 21 33 1 4 -15 1 -19 -11 -15 -9 3 -24 1 -32 -5 -12
-9 -11 -10 8 -6 12 3 22 1 22 -5 0 -5 5 -6 10 -3 6 3 10 1 10 -6 0 -6 -8 -9
-20 -6 -11 3 -25 -2 -32 -11 -11 -13 -10 -15 14 -10 18 3 29 0 32 -9 4 -9 1
-11 -6 -7 -7 4 -8 3 -4 -4 11 -18 26 -14 26 7 0 11 4 22 9 25 5 3 7 15 4 25
-4 15 3 23 31 35 43 18 45 22 9 21 -17 0 -27 5 -25 13 1 6 -3 12 -8 12 -6 0
-5 6 2 14 7 8 16 12 21 9 4 -2 7 0 7 6 0 5 -9 9 -20 8 -11 -1 -20 -8 -20 -15z
m-4 -31 c-4 -5 0 -11 6 -14 10 -3 10 -8 -1 -18 -8 -8 -11 -9 -8 -3 4 7 -3 14
-16 18 -18 5 -20 8 -7 16 19 12 33 13 26 1z"/>
<path d="M1130 975 c0 -5 5 -17 10 -25 5 -8 10 -10 10 -5 0 6 -5 17 -10 25 -5
8 -10 11 -10 5z"/>
<path d="M1040 956 c14 -9 32 -15 40 -15 13 0 13 1 0 8 -8 5 -26 12 -40 15
l-25 7 25 -15z"/>
<path d="M2348 953 c-18 -21 -31 -43 -25 -43 2 0 13 14 25 30 25 33 24 41 0
13z"/>
<path d="M625 942 c-37 -7 -38 -21 -2 -18 20 1 39 4 42 8 9 8 -17 15 -40 10z"/>
<path d="M1675 940 c-3 -5 -13 -7 -23 -4 -14 5 -15 4 -2 -5 20 -14 27 -14 34
4 6 17 0 20 -9 5z"/>
<path d="M143 933 c-24 -3 -30 -8 -26 -20 4 -11 2 -14 -5 -9 -7 4 -15 1 -18
-8 -3 -9 -14 -16 -23 -16 -9 0 -22 -5 -29 -12 -8 -8 -12 -8 -12 -1 0 6 7 16
15 23 8 7 15 18 15 24 0 6 -5 4 -10 -4 -9 -13 -10 -13 -10 0 0 11 -3 11 -11
-3 -6 -11 -9 -29 -6 -42 2 -13 0 -23 -6 -22 -5 1 -11 -2 -13 -8 -2 -5 12 -11
30 -12 27 -1 34 2 29 13 -3 7 -10 11 -17 7 -6 -4 -5 1 3 10 7 9 19 17 27 17 7
0 17 7 22 16 6 11 11 13 16 5 4 -6 15 -11 24 -10 14 0 13 2 -3 9 -11 5 -14 9
-7 9 7 1 10 6 7 11 -3 6 3 10 14 10 11 0 23 5 26 10 3 6 5 9 3 8 -2 0 -17 -3
-35 -5z"/>
<path d="M217 929 c7 -7 15 -10 18 -7 3 3 -2 9 -12 12 -14 6 -15 5 -6 -5z"/>
<path d="M449 923 c-13 -16 -12 -17 4 -4 9 7 17 15 17 17 0 8 -8 3 -21 -13z"/>
<path d="M1231 924 c0 -11 3 -14 6 -6 3 7 2 16 -1 19 -3 4 -6 -2 -5 -13z"/>
<path d="M1250 935 c0 -2 6 -8 13 -14 10 -8 14 -7 14 2 0 8 -6 14 -14 14 -7 0
-13 -1 -13 -2z"/>
<path d="M1061 920 c-9 -5 -5 -9 10 -13 28 -7 31 -6 14 10 -6 6 -18 8 -24 3z"/>
<path d="M1123 917 c-3 -5 -2 -11 1 -14 3 -4 6 -1 6 6 0 7 4 10 8 7 4 -2 14
-1 22 4 11 7 9 9 -8 7 -13 -1 -26 -5 -29 -10z"/>
<path d="M2076 918 c3 -5 10 -6 15 -3 13 9 11 12 -6 12 -8 0 -12 -4 -9 -9z"/>
<path d="M5 909 c-4 -6 -5 -12 -2 -15 2 -3 7 2 10 11 7 17 1 20 -8 4z"/>
<path d="M70 909 c0 -5 5 -7 10 -4 6 3 10 8 10 11 0 2 -4 4 -10 4 -5 0 -10 -5
-10 -11z"/>
<path d="M290 910 c0 -5 5 -10 11 -10 5 0 7 5 4 10 -3 6 -8 10 -11 10 -2 0 -4
-4 -4 -10z"/>
<path d="M1366 903 c-6 -14 -5 -15 5 -6 7 7 10 15 7 18 -3 3 -9 -2 -12 -12z"/>
<path d="M1446 912 c-2 -4 -1 -14 4 -22 7 -11 9 -9 7 8 -1 24 -3 26 -11 14z"/>
<path d="M468 903 c7 -3 16 -2 19 1 4 3 -2 6 -13 5 -11 0 -14 -3 -6 -6z"/>
<path d="M1022 893 c-24 -5 -52 -43 -29 -39 7 1 24 12 37 24 13 12 22 21 19
21 -2 -1 -14 -4 -27 -6z"/>
<path d="M1065 885 c4 -11 8 -25 9 -32 4 -22 14 -26 44 -15 22 7 33 7 43 -1
11 -10 11 -9 1 4 -6 9 -8 19 -4 24 4 4 -3 3 -14 -3 -12 -6 -24 -8 -28 -5 -3 3
-6 1 -6 -5 0 -7 -8 -12 -17 -12 -11 0 -14 3 -7 8 6 4 13 14 17 24 4 11 1 15
-11 13 -9 -1 -21 3 -25 9 -5 6 -6 3 -2 -9z"/>
<path d="M1647 888 c7 -8 11 -17 8 -20 -3 -2 2 -5 10 -5 22 0 18 15 -7 28 -20
11 -21 10 -11 -3z"/>
<path d="M1736 891 c-3 -5 2 -15 12 -22 15 -12 16 -12 5 2 -7 9 -10 19 -6 22
3 4 4 7 0 7 -3 0 -8 -4 -11 -9z"/>
<path d="M2150 895 c0 -5 5 -17 10 -25 5 -8 10 -10 10 -5 0 6 -5 17 -10 25 -5
8 -10 11 -10 5z"/>
<path d="M164 875 c-12 -8 -25 -11 -29 -7 -5 4 -5 1 -1 -5 5 -10 13 -9 32 3
13 9 24 18 24 20 0 7 -5 5 -26 -11z"/>
<path d="M208 883 c6 -2 18 -2 25 0 6 3 1 5 -13 5 -14 0 -19 -2 -12 -5z"/>
<path d="M1327 875 c-4 -8 -3 -16 1 -19 4 -3 9 4 9 15 2 23 -3 25 -10 4z"/>
<path d="M1400 885 c0 -15 18 -40 24 -34 3 3 -1 14 -9 25 -8 10 -14 15 -15 9z"/>
<path d="M1820 879 c0 -5 5 -7 10 -4 6 3 10 8 10 11 0 2 -4 4 -10 4 -5 0 -10
-5 -10 -11z"/>
<path d="M2099 873 c-13 -16 -12 -17 4 -4 9 7 17 15 17 17 0 8 -8 3 -21 -13z"/>
<path d="M2520 881 c0 -5 7 -12 16 -15 14 -5 15 -4 4 9 -14 17 -20 19 -20 6z"/>
<path d="M1236 855 c3 -29 -20 -31 -46 -5 -8 9 -11 10 -7 3 5 -6 5 -18 1 -24
-4 -8 -3 -9 4 -5 7 4 12 1 12 -6 0 -10 2 -10 9 1 6 9 11 10 15 2 7 -11 56 37
56 55 0 4 -7 -1 -15 -12 -13 -17 -14 -17 -15 -1 0 9 -4 17 -9 17 -4 0 -7 -11
-5 -25z"/>
<path d="M1690 869 c0 -5 10 -9 22 -9 12 0 18 3 14 7 -10 11 -36 12 -36 2z"/>
<path d="M2300 870 c-9 -6 -10 -10 -3 -10 6 0 15 5 18 10 8 12 4 12 -15 0z"/>
<path d="M204 861 c4 -5 3 -11 -1 -14 -5 -2 -3 -2 4 -1 6 2 17 -4 23 -12 7 -8
18 -14 24 -14 6 0 4 5 -4 10 -12 8 -12 10 5 11 11 0 14 3 7 6 -6 2 -10 10 -6
16 3 7 -1 3 -10 -7 -14 -17 -16 -17 -22 -3 -3 10 -10 17 -16 17 -5 0 -7 -4 -4
-9z"/>
<path d="M1844 857 c-2 -7 0 -24 6 -38 10 -23 10 -23 5 4 -4 18 -2 26 4 22 7
-3 8 0 5 9 -7 19 -13 20 -20 3z"/>
<path d="M1935 861 c-3 -5 -2 -12 3 -15 5 -3 9 1 9 9 0 17 -3 19 -12 6z"/>
<path d="M1991 863 c-1 -17 16 -25 25 -12 4 7 3 9 -4 5 -5 -3 -13 0 -15 6 -4
9 -6 10 -6 1z"/>
<path d="M1472 847 c-8 -10 -6 -16 9 -25 18 -12 19 -11 10 6 -6 11 -7 22 -4
26 3 3 4 6 1 6 -3 0 -10 -6 -16 -13z"/>
<path d="M2065 848 c-5 -7 -5 -10 0 -6 4 4 14 3 20 -2 9 -7 17 -5 26 7 12 16
12 17 -2 6 -11 -9 -19 -9 -26 -2 -8 8 -13 7 -18 -3z"/>
<path d="M2351 847 c-8 -10 -7 -14 4 -14 8 0 15 6 15 14 0 7 -2 13 -4 13 -2 0
-9 -6 -15 -13z"/>
<path d="M90 839 c0 -5 5 -9 10 -9 6 0 12 0 15 0 14 0 8 13 -7 16 -10 1 -18
-2 -18 -7z"/>
<path d="M374 843 c3 -4 1 -12 -4 -18 -7 -9 -5 -17 7 -26 16 -12 17 -12 5 2
-10 13 -10 18 1 28 8 6 16 10 18 8 2 -1 3 0 1 2 -1 3 -10 6 -18 7 -9 1 -13 0
-10 -3z"/>
<path d="M524 837 c3 -10 6 -20 6 -23 0 -2 7 -1 16 3 14 5 15 3 5 -15 -11 -20
2 -42 16 -28 4 3 1 6 -6 6 -9 0 -9 5 -1 20 9 16 7 22 -7 27 -10 4 -22 11 -26
17 -5 7 -6 4 -3 -7z"/>
<path d="M1024 842 c4 -7 2 -19 -4 -27 -7 -8 -9 -15 -4 -15 5 0 2 -5 -6 -11
-10 -7 -11 -9 -2 -7 8 2 14 8 14 13 0 6 5 16 10 23 8 9 8 16 -2 25 -10 9 -11
9 -6 -1z"/>
<path d="M1288 838 c5 -5 16 -8 23 -6 8 3 3 7 -10 11 -17 4 -21 3 -13 -5z"/>
<path d="M1660 838 c0 -11 28 -10 35 1 3 6 -4 9 -15 8 -11 -1 -20 -5 -20 -9z"/>
<path d="M1691 818 l-31 -29 -9 23 c-7 16 -10 18 -10 6 -1 -9 4 -20 11 -24 8
-5 6 -10 -8 -15 -16 -6 -16 -8 -2 -8 9 -1 20 4 23 9 5 8 11 8 20 0 10 -8 15
-6 20 9 3 12 10 21 15 21 5 0 14 8 19 18 16 29 -12 23 -48 -10z m13 -13 c-4
-8 -11 -15 -16 -15 -6 0 -5 6 2 15 7 8 14 15 16 15 2 0 1 -7 -2 -15z"/>
<path d="M2550 840 c10 -6 11 -10 3 -10 -7 0 -13 -9 -13 -19 0 -11 -6 -22 -12
-25 -9 -4 -8 -5 2 -5 38 3 51 -1 44 -13 -5 -9 -2 -9 9 1 9 7 17 23 17 35 -1
19 -2 19 -11 4 -5 -10 -17 -18 -24 -18 -20 0 -19 29 1 37 13 5 13 7 2 14 -7 5
-17 9 -23 9 -5 0 -3 -5 5 -10z"/>
<path d="M140 830 c0 -7 13 -17 29 -23 16 -6 35 -21 42 -34 14 -25 32 -32 23
-8 -4 8 -10 15 -15 15 -5 0 -9 7 -9 15 0 8 -9 15 -19 15 -11 0 -27 7 -35 16
-10 9 -16 11 -16 4z"/>
<path d="M341 824 c0 -11 3 -14 6 -6 3 7 2 16 -1 19 -3 4 -6 -2 -5 -13z"/>
<path d="M460 830 c-9 -6 -10 -10 -3 -10 6 0 15 5 18 10 8 12 4 12 -15 0z"/>
<path d="M705 831 c6 -11 4 -13 -8 -8 -9 3 -19 1 -23 -5 -4 -6 -3 -8 4 -4 6 3
15 -1 20 -10 8 -15 10 -15 16 2 4 9 1 22 -5 28 -9 8 -10 7 -4 -3z"/>
<path d="M1330 829 c0 -18 -42 -50 -57 -44 -8 2 -11 0 -8 -5 3 -5 17 -9 30 -8
13 1 22 5 19 9 -2 4 2 9 10 12 15 6 29 47 15 47 -5 0 -9 -5 -9 -11z"/>
<path d="M1379 833 c-1 -5 -1 -11 0 -16 1 -4 -11 -12 -26 -18 -17 -6 -23 -13
-16 -17 19 -12 1 -29 -32 -30 -16 0 -101 -3 -189 -6 -87 -3 -160 -7 -162 -9
-3 -2 -32 -3 -66 -1 -35 1 -67 -1 -73 -5 -12 -9 -58 13 -48 23 4 4 -1 4 -11 0
-18 -7 -18 -8 -1 -20 10 -7 22 -11 28 -7 6 3 7 1 3 -6 -11 -17 -47 -10 -71 14
-13 14 -15 15 -5 2 12 -16 12 -19 0 -27 -8 -6 -19 -10 -25 -11 -5 0 -23 -3
-38 -5 l-29 -5 19 25 c11 15 22 21 27 15 6 -5 15 -9 20 -9 6 0 3 5 -6 11 -10
5 -18 16 -18 24 0 8 -4 16 -9 19 -5 4 -8 -2 -6 -11 4 -27 -15 -57 -27 -45 -6
6 -17 8 -24 5 -8 -3 -17 2 -20 11 -3 9 -10 13 -15 10 -13 -8 -11 -24 4 -21 7
1 11 -6 9 -18 -2 -15 -1 -17 6 -6 6 7 15 10 22 6 8 -5 6 -12 -6 -26 -16 -18
-16 -19 -1 -13 9 3 17 2 17 -3 0 -5 -6 -10 -12 -10 -7 0 -23 -3 -36 -7 -17 -6
-23 -4 -21 6 6 47 -15 46 -24 -2 -4 -19 -13 -30 -24 -30 -15 0 -15 1 2 13 14
11 15 16 5 22 -8 5 -11 4 -7 -2 8 -12 -20 -27 -42 -24 -7 1 -10 -2 -6 -9 4 -6
13 -9 21 -6 8 3 14 -1 14 -10 0 -15 3 -15 25 0 17 11 33 14 48 10 12 -5 26 -7
30 -6 5 1 5 -2 2 -8 -4 -6 -21 -10 -38 -8 -19 1 -31 -2 -30 -9 1 -7 -15 -10
-43 -9 -27 1 -50 -4 -56 -12 -6 -7 -30 -12 -52 -12 -23 1 -65 -2 -93 -5 -40
-4 -53 -3 -53 7 0 9 -3 9 -10 -2 -5 -8 -7 -22 -4 -32 4 -14 -3 -16 -40 -16
-25 0 -51 -4 -58 -8 -10 -6 -11 -5 -1 8 19 22 3 31 -20 11 -18 -16 -20 -16
-14 -2 5 15 2 15 -24 6 -16 -6 -29 -15 -29 -20 0 -4 9 -3 20 3 27 14 25 3 -2
-21 -13 -10 -17 -18 -10 -19 6 0 12 5 12 10 0 6 5 10 12 10 6 0 8 -3 5 -7 -8
-8 25 -33 35 -27 5 3 8 11 8 17 0 7 -4 6 -10 -3 -5 -8 -10 -13 -11 -10 0 3 -2
13 -4 23 -2 13 1 16 13 13 9 -3 32 -7 49 -8 18 -1 33 -6 33 -11 0 -4 4 -5 10
-2 5 3 10 1 10 -4 0 -6 -15 -11 -33 -11 -21 0 -34 -5 -34 -13 0 -9 11 -12 31
-10 l31 4 -29 -13 c-27 -13 -27 -14 -11 -28 10 -8 19 -14 19 -12 1 2 8 1 16
-2 8 -3 62 -12 120 -20 l105 -14 -70 -1 c-38 0 -99 -4 -135 -9 -36 -5 -68 -8
-72 -5 -4 2 -5 -4 -1 -13 6 -15 -1 -16 -60 -12 l-67 6 0 -43 c0 -33 4 -45 17
-48 17 -4 17 -5 1 -6 -16 -1 -18 -13 -18 -106 l0 -105 1300 0 1300 0 0 359 c0
387 2 374 -53 377 -34 1 -26 -9 11 -14 15 -2 29 -6 32 -9 3 -3 -13 -3 -35 1
-22 3 -55 5 -72 6 -24 0 -33 5 -33 16 0 12 -3 14 -12 6 -15 -12 -67 -11 -87 2
-10 6 -12 5 -7 -2 4 -7 1 -12 -8 -12 -9 0 -20 16 -27 43 -7 25 -14 35 -16 25
-3 -9 1 -26 7 -37 9 -17 8 -21 -5 -21 -9 0 -14 4 -11 8 2 4 1 14 -5 22 -7 12
-9 10 -9 -7 0 -16 -6 -23 -19 -23 -11 0 -23 5 -26 10 -3 6 -14 10 -23 10 -15
0 -15 -2 -2 -10 9 -6 10 -10 3 -10 -6 0 -14 4 -17 8 -3 5 -19 7 -36 4 -19 -3
-30 0 -30 7 0 7 5 9 12 5 7 -5 8 -3 3 6 -6 10 -10 10 -19 -2 -14 -19 -152 -26
-141 -7 4 6 -1 6 -13 -2 -14 -9 -37 -10 -89 -3 -67 9 -205 9 -325 0 -49 -3
-56 -2 -51 13 3 12 1 11 -12 -4 -16 -20 -16 -20 -21 2 -3 12 -12 24 -20 27
-11 4 -11 0 2 -19 l16 -25 -40 2 c-39 1 -50 14 -27 30 6 4 2 8 -8 8 -10 0 -15
5 -12 10 4 6 10 8 15 5 4 -3 6 4 3 15 -5 20 -12 26 -14 13z m-9 -69 c0 -8 -4
-14 -9 -14 -6 0 -9 9 -8 19 1 22 17 18 17 -5z m-1217 -561 c-7 -2 -21 -2 -30
0 -10 3 -4 5 12 5 17 0 24 -2 18 -5z"/>
<path d="M1768 824 c-31 -16 -34 -21 -15 -21 6 0 21 9 31 19 23 22 20 22 -16
2z"/>
<path d="M2128 833 c7 -3 16 -2 19 1 4 3 -2 6 -13 5 -11 0 -14 -3 -6 -6z"/>
<path d="M2484 827 c-4 -7 -3 -9 1 -4 5 4 17 -1 27 -10 17 -15 18 -15 13 -1
-9 22 -33 30 -41 15z"/>
<path d="M973 817 c0 -7 -3 -23 -7 -37 -6 -19 -5 -21 3 -10 7 10 11 11 11 3 0
-7 5 -13 11 -13 8 0 8 5 -1 15 -7 8 -10 21 -7 30 4 8 3 17 -2 19 -4 3 -8 0 -8
-7z"/>
<path d="M1053 815 c0 -8 4 -15 9 -15 4 0 8 4 8 9 0 6 -4 12 -8 15 -5 3 -9 -1
-9 -9z"/>
<path d="M1270 820 c8 -5 20 -10 25 -10 6 0 3 5 -5 10 -8 5 -19 10 -25 10 -5
0 -3 -5 5 -10z"/>
<path d="M1820 821 c0 -6 4 -13 10 -16 6 -3 7 1 4 9 -7 18 -14 21 -14 7z"/>
<path d="M2430 820 c0 -5 7 -7 15 -4 8 4 15 8 15 10 0 2 -7 4 -15 4 -8 0 -15
-4 -15 -10z"/>
<path d="M437 809 c7 -7 15 -10 18 -7 3 3 -2 9 -12 12 -14 6 -15 5 -6 -5z"/>
<path d="M1545 810 c-3 -5 -1 -10 4 -10 6 0 11 5 11 10 0 6 -2 10 -4 10 -3 0
-8 -4 -11 -10z"/>
<path d="M2210 816 c0 -2 8 -10 18 -17 15 -13 16 -12 3 4 -13 16 -21 21 -21
13z"/>
<path d="M2310 810 c0 -4 7 -11 16 -14 12 -5 14 -10 5 -19 -8 -10 -7 -14 4
-14 8 0 12 4 9 8 -2 4 0 10 6 14 5 3 10 0 10 -7 0 -10 2 -10 9 1 7 10 12 9 23
-8 12 -18 17 -19 21 -7 8 19 -17 39 -48 39 -13 0 -23 3 -21 6 3 4 -4 8 -15 8
-10 1 -19 -2 -19 -7z"/>
<path d="M37 790 c-8 -11 -17 -17 -22 -12 -5 4 -5 1 -1 -6 4 -7 11 -10 16 -7
4 3 10 1 12 -4 1 -5 12 3 23 17 18 26 18 26 0 12 -17 -14 -18 -13 -12 3 9 23
1 22 -16 -3z"/>
<path d="M810 802 c0 -6 7 -13 16 -16 16 -6 11 -26 -7 -26 -6 0 -8 3 -6 8 3 4
-1 13 -9 20 -17 15 -18 8 -4 -19 13 -23 36 -25 44 -4 3 8 10 15 16 15 6 0 8
-5 4 -12 -5 -7 -3 -8 5 -3 14 8 2 25 -20 28 -8 2 -20 6 -26 10 -7 5 -13 4 -13
-1z"/>
<path d="M1150 800 c0 -5 5 -10 11 -10 5 0 7 5 4 10 -3 6 -8 10 -11 10 -2 0
-4 -4 -4 -10z"/>
<path d="M1785 799 c-4 -6 -5 -12 -2 -15 2 -3 7 2 10 11 7 17 1 20 -8 4z"/>
<path d="M114 792 c-7 -5 -4 -15 11 -31 23 -23 23 -23 34 -3 7 14 8 23 1 27
-6 4 -10 3 -9 -2 1 -4 1 -15 0 -23 -1 -12 -5 -11 -16 4 -8 10 -12 23 -9 27 6
11 3 11 -12 1z"/>
<path d="M745 790 c-4 -6 -10 -8 -14 -6 -4 3 -8 -1 -8 -9 0 -10 5 -11 19 -4
10 5 18 14 18 19 0 13 -7 13 -15 0z"/>
<path d="M1805 790 c-3 -5 -1 -10 4 -10 6 0 11 5 11 10 0 6 -2 10 -4 10 -3 0
-8 -4 -11 -10z"/>
<path d="M2031 783 c0 -11 3 -13 6 -5 2 6 10 9 15 6 7 -4 8 -2 4 4 -11 18 -26
14 -25 -5z"/>
<path d="M2080 780 c6 -11 13 -20 16 -20 3 0 2 5 -2 11 -3 6 0 15 7 20 10 6 8
9 -9 9 -20 0 -21 -3 -12 -20z"/>
<path d="M2495 789 c-4 -6 -5 -12 -2 -15 2 -3 7 2 10 11 7 17 1 20 -8 4z"/>
<path d="M330 780 c0 -5 5 -10 11 -10 5 0 7 5 4 10 -3 6 -8 10 -11 10 -2 0 -4
-4 -4 -10z"/>
<path d="M890 784 c0 -6 7 -19 16 -30 14 -18 14 -18 3 6 -14 31 -19 36 -19 24z"/>
<path d="M1225 781 c-3 -5 -1 -12 5 -16 5 -3 10 1 10 9 0 18 -6 21 -15 7z"/>
<path d="M1098 773 c7 -3 16 -2 19 1 4 3 -2 6 -13 5 -11 0 -14 -3 -6 -6z"/>
<path d="M1131 764 c0 -11 3 -14 6 -6 3 7 2 16 -1 19 -3 4 -6 -2 -5 -13z"/>
<path d="M1415 770 c3 -5 11 -10 16 -10 6 0 7 5 4 10 -3 6 -11 10 -16 10 -6 0
-7 -4 -4 -10z"/>
<path d="M1510 770 c0 -5 5 -10 11 -10 5 0 7 5 4 10 -3 6 -8 10 -11 10 -2 0
-4 -4 -4 -10z"/>
<path d="M62 750 c-16 -26 3 -36 39 -20 l24 10 -27 -5 c-22 -4 -25 -2 -21 15
7 26 1 25 -15 0z"/>
<path d="M517 759 c7 -9 10 -19 6 -23 -12 -12 -11 -33 1 -33 19 0 17 43 -2 58
-15 12 -16 12 -5 -2z"/>
<path d="M304 746 c5 -14 2 -17 -9 -12 -14 5 -14 4 -1 -16 14 -19 14 -23 -2
-35 -15 -13 -15 -13 5 -4 14 7 20 17 16 30 -4 16 -1 19 15 15 12 -4 22 0 25
10 4 10 1 16 -9 16 -8 0 -12 -4 -9 -10 11 -18 -14 -11 -25 8 -11 16 -11 16 -6
-2z"/>
<path d="M435 751 c-3 -5 -2 -12 3 -15 5 -3 9 1 9 9 0 17 -3 19 -12 6z"/>
<path d="M475 750 c-4 -6 -2 -17 5 -24 8 -11 8 -15 -2 -19 -8 -4 -7 -6 5 -6
18 -1 23 14 7 24 -5 3 -7 12 -3 20 6 17 -3 20 -12 5z"/>
<path d="M2470 751 c0 -5 7 -11 14 -14 10 -4 13 -1 9 9 -6 15 -23 19 -23 5z"/>
<path d="M6 734 c-8 -21 -8 -21 7 -27 7 -3 13 3 14 14 2 24 -13 34 -21 13z"/>
<path d="M125 721 c-3 -5 -2 -12 3 -15 5 -3 9 1 9 9 0 17 -3 19 -12 6z"/>
<path d="M366 707 c3 -10 9 -15 12 -12 3 3 0 11 -7 18 -10 9 -11 8 -5 -6z"/>
<path d="M423 708 c-15 -24 -33 -60 -33 -67 0 -3 5 2 11 13 9 15 13 16 21 5 6
-10 7 -7 3 9 -4 13 -1 29 5 37 7 8 10 15 7 15 -3 0 -9 -6 -14 -12z"/>
<path d="M40 700 c0 -5 5 -10 11 -10 5 0 7 -5 3 -12 -4 -7 -3 -8 5 -4 9 6 9
11 0 22 -14 17 -19 18 -19 4z"/>
<path d="M130 681 c0 -5 5 -13 10 -16 6 -3 10 -2 10 4 0 5 -4 13 -10 16 -5 3
-10 2 -10 -4z"/>
<path d="M453 683 c-7 -3 -13 -14 -12 -26 0 -22 0 -22 10 1 7 18 14 22 29 17
11 -3 20 -3 20 2 0 10 -28 13 -47 6z"/>
<path d="M3 660 c-1 -11 3 -20 8 -20 6 0 7 -6 3 -12 -18 -28 -12 -74 8 -62 6
4 5 10 -3 16 -11 8 -10 9 4 4 19 -6 24 9 6 19 -6 4 -8 13 -5 20 2 7 -1 18 -7
24 -8 8 -8 11 2 11 7 0 9 5 6 10 -10 16 -21 11 -22 -10z"/>
<path d="M356 646 c-16 -19 -31 -45 -33 -58 -2 -18 -1 -20 7 -8 9 13 10 13 10
0 0 -13 1 -13 10 0 5 8 10 20 10 25 0 6 -4 4 -9 -4 -5 -8 -11 -9 -15 -3 -3 6
2 17 12 24 16 11 48 58 40 58 -2 0 -16 -16 -32 -34z"/>
<path d="M241 661 c-7 -5 -12 -14 -10 -20 2 -6 10 -2 17 9 14 22 13 23 -7 11z"/>
<path d="M195 651 c3 -5 1 -12 -5 -16 -6 -4 -8 -11 -4 -16 3 -5 10 -7 15 -3 5
3 7 10 4 15 -4 5 -1 9 5 9 6 0 8 5 5 10 -3 6 -11 10 -16 10 -6 0 -8 -4 -4 -9z"/>
<path d="M38 633 c-3 -11 1 -28 8 -38 12 -16 11 -20 -8 -29 -27 -14 -33 -32
-14 -39 9 -4 15 -1 13 6 -2 14 63 18 80 5 7 -5 14 -5 18 2 3 5 5 10 3 11 -2 0
-11 2 -21 4 -25 5 -35 15 -15 15 25 0 31 41 7 47 -18 5 -19 6 -2 19 17 12 17
13 -2 9 -11 -2 -23 -4 -26 -4 -3 -1 -4 -13 -1 -27 4 -24 3 -25 -16 -13 -12 7
-17 16 -12 19 5 3 5 11 1 19 -6 9 -9 8 -13 -6z m76 -37 c-3 -8 -12 -17 -20
-20 -9 -3 -13 -10 -10 -14 3 -5 0 -9 -7 -9 -7 0 -13 8 -13 18 0 10 4 16 8 13
4 -2 13 2 20 10 17 19 29 20 22 2z"/>
<path d="M260 636 c0 -2 7 -6 15 -10 8 -3 15 -1 15 4 0 6 -7 10 -15 10 -8 0
-15 -2 -15 -4z"/>
<path d="M300 619 c0 -5 5 -7 10 -4 6 3 10 8 10 11 0 2 -4 4 -10 4 -5 0 -10
-5 -10 -11z"/>
<path d="M380 620 c0 -6 5 -10 10 -10 6 0 10 -5 10 -11 0 -5 -4 -8 -9 -4 -5 3
-12 1 -15 -4 -6 -9 29 -23 37 -14 3 2 3 13 0 23 -5 20 -33 36 -33 20z"/>
<path d="M152 602 c7 -9 13 -18 14 -20 1 -2 4 4 7 12 3 8 -2 16 -14 19 -17 5
-18 3 -7 -11z"/>
<path d="M205 590 c6 -9 -34 -26 -50 -21 -5 1 -1 -7 10 -19 18 -20 20 -20 32
-4 7 10 13 23 13 28 0 6 6 4 13 -4 17 -21 36 -23 43 -6 3 8 13 12 22 9 15 -4
15 -3 2 6 -11 8 -18 7 -25 -3 -10 -13 -39 -10 -30 4 3 4 -4 10 -15 13 -11 3
-18 1 -15 -3z"/>
<path d="M455 590 c3 -5 8 -10 11 -10 2 0 4 5 4 10 0 6 -5 10 -11 10 -5 0 -7
-4 -4 -10z"/>
<path d="M50 410 c0 -5 5 -10 10 -10 6 0 10 5 10 10 0 6 -4 10 -10 10 -5 0
-10 -4 -10 -10z"/>
</g>
</svg>
