<?xml version="1.0" standalone="no"?>
<!DOCTYPE svg PUBLIC "-//W3C//DTD SVG 20010904//EN"
 "http://www.w3.org/TR/2001/REC-SVG-20010904/DTD/svg10.dtd">
<svg version="1.0" xmlns="http://www.w3.org/2000/svg"
 width="200.000000pt" height="200.000000pt" viewBox="0 0 200.000000 200.000000"
 preserveAspectRatio="xMidYMid meet">
<metadata>
Created by potrace 1.14, written by Peter Selinger 2001-2017
</metadata>
<g transform="translate(0.000000,200.000000) scale(0.100000,-0.100000)"
fill="#000000" stroke="none">
<path d="M943 1273 c-18 -19 -33 -39 -33 -45 0 -6 -10 -18 -23 -28 -13 -10
-31 -36 -41 -58 -10 -22 -28 -45 -40 -51 -12 -7 -30 -30 -39 -53 -10 -22 -21
-38 -24 -35 -7 8 38 137 49 137 4 0 8 6 8 14 0 8 7 22 16 31 19 19 45 86 37
97 -2 5 -19 8 -37 8 -33 0 -76 -33 -76 -59 0 -7 -15 -27 -34 -45 -18 -17 -41
-46 -50 -63 -9 -18 -20 -33 -24 -33 -4 0 -19 -25 -32 -55 -13 -30 -27 -55 -31
-55 -4 0 -13 -16 -20 -35 -7 -19 -16 -35 -20 -35 -14 0 -29 -64 -29 -123 0
-59 0 -60 18 -41 10 11 25 41 32 67 8 26 17 47 21 47 3 0 16 27 28 60 12 33
26 60 30 60 4 0 15 18 24 40 14 36 37 55 37 30 0 -5 -4 -10 -9 -10 -12 0 -31
-80 -31 -134 0 -43 2 -46 26 -46 40 0 63 17 85 65 11 24 27 46 35 49 8 3 14
12 14 21 0 8 4 15 8 15 5 0 19 20 31 45 12 25 24 45 26 45 6 0 -47 -145 -55
-150 -5 -3 -12 -19 -16 -35 -4 -17 -12 -33 -17 -37 -5 -3 -10 -35 -11 -70 -1
-62 -1 -63 28 -66 31 -4 49 13 40 39 -9 30 41 219 57 219 5 0 9 9 9 20 0 11 3
20 8 20 7 0 33 55 62 128 7 17 16 32 21 32 5 0 9 7 9 15 0 8 4 15 9 15 12 0
29 51 24 68 -9 25 -67 11 -100 -25z"/>
<path d="M1393 1276 c-18 -18 -33 -37 -33 -44 0 -6 -15 -26 -34 -44 -18 -18
-41 -48 -50 -66 -9 -18 -23 -35 -30 -38 -7 -3 -19 -20 -26 -39 -17 -44 -45
-58 -35 -18 3 15 10 30 14 33 4 3 13 21 21 40 8 19 16 37 19 40 11 10 51 101
51 115 0 8 6 15 13 15 23 0 -17 20 -41 20 -28 0 -82 -38 -82 -59 0 -9 -15 -33
-33 -53 -55 -63 -68 -81 -94 -138 -15 -30 -35 -62 -44 -71 -10 -9 -33 -54 -50
-100 -18 -46 -36 -85 -41 -87 -4 -2 -8 -15 -8 -28 0 -22 4 -25 28 -22 22 2 29
11 40 46 8 23 18 42 23 42 5 0 9 9 9 20 0 11 4 20 9 20 5 0 13 10 16 23 14 46
60 143 77 161 10 11 21 16 25 11 5 -4 3 -10 -4 -12 -7 -2 -15 -20 -19 -39 -3
-19 -10 -34 -15 -34 -5 0 -9 -25 -9 -55 l0 -55 33 0 c36 0 68 28 96 83 8 15
18 27 22 27 5 0 17 20 28 45 11 25 25 45 30 45 6 0 11 6 11 14 0 8 4 17 10 21
5 3 5 -7 -1 -25 -6 -16 -14 -30 -18 -30 -4 0 -17 -35 -31 -77 -13 -43 -28 -81
-34 -85 -5 -3 -9 -35 -10 -70 -1 -62 0 -63 27 -66 15 -2 27 0 28 5 0 4 2 33 4
63 2 30 9 56 14 58 6 2 11 10 11 17 0 18 30 109 39 115 3 3 12 23 20 44 7 22
22 49 32 60 11 11 19 26 19 33 0 17 32 85 48 101 6 7 12 20 12 28 0 8 5 14 11
14 6 0 4 7 -5 15 -22 23 -58 16 -93 -19z"/>
</g>
</svg>
